<?xml version="1.0" encoding="UTF-8"?>
<svg width="512px" height="512px" viewBox="0 0 512 512" version="1.1" xmlns="http://www.w3.org/2000/svg" xmlns:xlink="http://www.w3.org/1999/xlink">
    <!-- Generator: Sketch 53.2 (72643) - https://sketchapp.com -->
    <title>android-chrome-512x512</title>
    <desc>Created with Sketch.</desc>
    <defs>
        <polygon id="path-1" points="0.482535554 0.402618722 110.370115 0.402618722 110.370115 70.9139624 0.482535554 70.9139624"></polygon>
    </defs>
    <g id="android-chrome-512x512" stroke="none" stroke-width="1" fill="none" fill-rule="evenodd">
        <circle id="Oval" fill="#FFFFFF" cx="256" cy="256" r="256"></circle>
        <g id="Group" transform="translate(40.960000, 40.960000)">
            <polyline id="Fill-1" fill="#688496" points="94.991004 155.366815 121.747736 117.339035 167.697477 89.5372419 210.286533 80.4571429 253.51988 89.0232524 268.532568 91.1192763 295.380177 111.231833 309.100204 121.428628 326.59452 141.014603 333.531429 156.98033 319.362262 164.765725 298.955819 142.848481 261.402255 166.127396 171.036607 168.228571 150.173451 156.286043 137.961043 161.603373 121.690065 140.601351 94.3542857 164.824679 94.991004 155.366815"></polyline>
            <polyline id="Fill-2" fill="#F4B628" points="246.520624 85.5771429 239.479325 92.9435723 234.788571 114.11015 243.54698 129.076187 263.826679 137.508571 279.04636 127.654913 287.256901 116.111738 288.914286 104.677263 246.520624 85.5771429"></polyline>
            <polyline id="Fill-3" fill="#F6F3EB" points="176.607594 87.7714286 173.516564 92.3508905 176.216627 93.9882814 178.158644 95.5995104 189.229249 96.3582041 201.756513 96.9269401 207.291816 97.6850651 208.457143 103.183036 199.231833 106.500473 174.371332 106.500473 171.38693 108.491048 170.389992 112.4722 176.79929 114.747144 180.003939 116.832699 180.78063 122.23569 171.38693 124.342857 143.393447 124.342857 139.702857 121.098218 139.702857 117.685803 144.946828 114.083429 153.930333 112.4722 153.930333 109.817909 148.540114 106.057427 141.066872 105.483004 154.366748 97.6850651 176.607594 87.7714286"></polyline>
            <polyline id="Fill-4" fill="#182E3A" points="95.6025401 163.134203 122.937804 138.202083 141.879878 157.654706 151.580505 157.135589 167.197902 169.264776 263.125743 167.13076 301.924163 137.508571 319.252095 168.075401 335.460117 157.840727 346.233918 185.565496 349.622857 212.481071 347.532008 242.193364 340.575365 262.377284 331.035392 282.59492 320.311832 300.776202 306.452291 313.139078 291.195345 325.60601 278.25767 334.994286 156.429358 332.850387 132.377878 318.636597 108.940391 293.703314 95.6025401 270.968573 87.0329224 247.715879 82.6514286 209.239064 91.0469549 173.594428 95.6025401 163.134203"></polyline>
            <polyline id="Fill-5" fill="#61625E" points="345.316978 203.885065 337.810748 208.202665 324.658617 219.675396 318.877037 232.002888 313.094871 250.438078 308.603415 263.144492 315.485636 287.288021 318.633165 301.358318 292.677458 326.372374 263.067765 335.725714 239.721549 289.806183 244.262131 238.630799 183.596472 253.631175 179.731363 299.415252 165.689713 326.7005 152.120602 332.856072 125.325087 314.348485 116.297143 308.147372 143.68801 285.127761 167.313773 244.304692 237.165278 214.923992 271.879325 200.817496 318.877037 186.664292 344.236221 180.662857 346.861501 193.302712 348.891429 203.919512 345.316978 203.885065"></polyline>
            <polyline id="Fill-6" fill="#B35447" points="348.16 200.411429 336.244787 208.055831 323.165851 219.450241 317.416446 231.693579 311.66646 250.002917 307.2 262.622589 314.04392 286.601299 314.922673 299.154286 327.849237 282.439585 337.346281 262.272348 344.271621 242.138745 347.2638 222.590808 348.16 200.411429"></polyline>
            <polyline id="Fill-7" fill="#B35447" points="266.24 202.605714 179.752667 219.007644 165.198458 222.167649 161.992567 219.58631 126.994245 224.587473 108.874372 230.729118 93.6845833 238.45861 85.5771429 242.605136 88.0389965 252.796863 103.074846 281.125356 110.16186 293.220988 119.672242 303.542857 152.061769 279.762354 179.752667 258.924565 266.24 202.605714"></polyline>
            <polyline id="Fill-8" fill="#C6D1CC" points="138.118255 190.902857 99.4742857 253.074286 159.451429 250.999467 124.928861 192.754809 132.696467 203.939057"></polyline>
            <path d="M4.38857143,265.817519 L13.3089281,262.69532 L20.2240785,282.73543 C22.442455,289.161476 26.9857932,290.51498 30.8287147,289.170323 C34.4643223,287.897027 37.2736021,284.66926 34.8643094,277.690017 L33.1472344,272.714785 C30.0240554,263.66135 33.4798738,255.403503 41.713869,252.521337 C50.0854878,249.591989 57.9505344,253.887815 61.1709284,263.216669 L68.7542857,285.19002 L59.8327578,288.312219 L52.8935964,268.204286 C51.4628958,264.05767 48.4386888,262.870479 45.4197524,263.926743 C42.6737209,264.887465 41.0327782,267.707706 42.4634788,271.854912 L44.0850956,276.552956 C48.3063358,288.784029 43.2207018,297.224702 34.5059022,300.274361 C25.6546502,303.37297 16.1697436,299.95412 11.9010672,287.585633 L4.38857143,265.817519" id="Fill-9" fill="#0A0B09"></path>
            <path d="M38.7961357,338.562245 C31.3178068,327.965691 33.3908333,316.361844 44.5621425,308.623243 L71.9546206,289.645714 L78.3514213,298.713084 L50.425779,318.060166 C44.9590925,321.847794 43.3753845,327.501143 47.114549,332.799999 C50.854298,338.098276 56.7161808,338.508376 62.1816981,334.721327 L90.1085096,315.373666 L96.5485714,324.49896 L69.1566779,343.475909 C57.9859533,351.215089 46.3148027,349.21904 38.7961357,338.562245" id="Fill-10" fill="#0A0B09"></path>
            <polyline id="Fill-11" fill="#0A0B09" points="64.3657143 369.409586 97.8928674 326.948571 110.232747 336.342187 101.357116 376.811615 103.663086 378.566383 126.953969 349.070903 135.314286 355.43555 101.787133 397.897143 89.2166562 388.327935 98.3228837 348.033522 96.0175022 346.277598 72.7266194 375.774233 64.3657143 369.409586"></polyline>
            <g id="Group-15" transform="translate(120.685714, 359.131429)">
                <mask id="mask-2" fill="white">
                    <use xlink:href="#path-1"></use>
                </mask>
                <g id="Clip-13"></g>
                <polyline id="Fill-12" fill="#0A0B09" mask="url(#mask-2)" points="0.482535554 50.9785674 18.838377 0.402618722 33.6138874 5.51841449 38.1250337 46.6264782 40.8867672 47.5828419 53.6388175 12.4494554 63.6509873 15.9155527 45.2951459 66.4915014 30.2420447 61.2805307 26.0078985 20.2676419 23.2449838 19.3112782 10.4947053 54.4446647 0.482535554 50.9785674"></polyline>
                <polyline id="Fill-14" fill="#0A0B09" mask="url(#mask-2)" points="92.1512972 51.4382911 91.2299319 70.9485714 79.8876886 70.437511 80.8096445 50.9295379 72.5409814 50.5569137 65.7340998 16.0903285 77.6616463 16.6267689 82.0747499 42.7502636 91.5878468 43.1776855 98.4425686 17.5623671 110.370115 18.0999612 100.41937 51.8109153 92.1512972 51.4382911"></polyline>
            </g>
            <path d="M261.061403,379.527084 L266.763764,396.148342 L276.362032,393.009644 C283.157678,390.788241 284.41302,386.041221 282.887783,381.595507 C281.409613,377.285904 277.526813,374.143716 270.800876,376.342433 L261.061403,379.527084 Z M280.437871,400.348591 L269.438291,403.945646 L275.679846,422.140907 L264.820278,425.691429 L247.222857,374.390344 L269.572941,367.082808 C281.483492,363.188518 290.649213,367.874462 294.02797,377.724484 C296.256246,384.222916 294.886512,390.451453 290.056396,394.998378 L305.737143,412.312988 L294.316931,416.046736 L280.437871,400.348591 L280.437871,400.348591 Z" id="Fill-16" fill="#0A0B09"></path>
            <path d="M339.136162,378.669274 C347.425071,372.441855 348.614019,361.968846 342.504752,353.757813 C336.30908,345.428417 325.977239,343.612532 317.689515,349.841736 C309.402382,356.069155 308.153069,366.585582 314.350516,374.916168 C320.4586,383.127202 330.84903,384.897288 339.136162,378.669274 Z M345.554355,387.294279 C332.033836,397.453835 314.790232,394.847478 305.033631,381.732426 C295.320825,368.676259 297.796964,351.433385 311.3163,341.27502 C324.894817,331.07145 341.992243,333.605242 351.704458,346.660815 C361.462241,359.775272 359.132281,377.090709 345.554355,387.294279 L345.554355,387.294279 Z" id="Fill-17" fill="#0A0B09"></path>
            <path d="M368.093584,333.40654 L376.070661,322.598202 L355.524076,313.676277 L353.065855,317.007602 L368.093584,333.40654 Z M384.390704,326.203502 L374.172203,340.048831 L383.825609,350.574469 L376.970429,359.862857 L340.114286,317.58929 L352.100929,301.348571 L404.48,322.591222 L397.580394,331.938361 L384.390704,326.203502 L384.390704,326.203502 Z" id="Fill-18" fill="#0A0B09"></path>
            <path d="M374.167119,281.3548 L406.098188,292.295912 L408.234962,286.083322 C412.298004,274.266622 406.958088,266.926302 398.028047,263.866636 C389.097428,260.807545 380.366934,263.326085 376.280247,275.210714 L374.167119,281.3548 Z M412.061546,305.737143 L361.325714,288.352599 L367.013396,271.809103 C372.912737,254.658279 386.699974,248.210241 401.582992,253.309493 C416.668442,258.478975 423.62723,272.1096 417.775758,289.125718 L412.061546,305.737143 L412.061546,305.737143 Z" id="Fill-19" fill="#0A0B09"></path>
            <path d="M139.864131,75.8307613 C124.977475,83.9991211 108.176897,78.9043793 100.278087,64.433635 C92.4169097,50.0281849 97.2668259,33.2206285 112.153482,25.0522686 C124.632802,18.2035698 138.983034,20.6625839 147.797588,31.2414366 L137.529075,36.8777007 C131.972489,31.9632665 124.525278,30.5435677 117.310438,34.5043477 C108.211544,39.4978537 105.540177,49.7729986 110.554366,58.9633019 C115.499261,68.023616 125.568258,71.3074931 134.669542,66.3133881 C142.014008,62.2831208 144.925511,54.9258463 143.45602,47.4313941 L153.595505,41.8670135 C157.906608,55.3409734 152.537591,68.8742372 139.864131,75.8307613" id="Fill-20" fill="#0A0B09"></path>
            <path d="M178.211917,35.8593039 L191.361246,33.5803435 L183.10124,13.2901511 L179.048042,13.9913253 L178.211917,35.8593039 Z M194.712146,41.7907183 L177.866878,44.7096805 L177.334481,58.7504775 L166.034286,60.7085714 L169.517266,5.6170546 L189.276461,2.19428571 L211.382857,52.8513807 L200.00993,54.8221707 L194.712146,41.7907183 L194.712146,41.7907183 Z" id="Fill-21" fill="#0A0B09"></path>
            <polyline id="Fill-22" fill="#0A0B09" points="215.04 53.2083616 225.174755 0 244.763334 3.72843428 247.95713 33.6706206 250.230009 34.1021012 264.208037 7.4295007 283.794286 11.1573527 273.658948 64.3657143 262.660942 62.2723641 270.4436 21.4086545 267.534059 20.8554743 252.974122 49.0338894 239.8442 46.5335151 236.662054 14.9783719 233.825906 14.4385845 226.040336 55.3022941 215.04 53.2083616"></polyline>
            <path d="M313.042964,34.7417974 L303.400118,50.3366212 L311.445216,54.9713715 C317.767863,58.6129611 322.570701,56.4483799 325.159473,52.2569635 C327.676301,48.1888241 327.47366,43.0557571 321.215762,39.4506297 L313.042964,34.7417974 Z M298.56011,58.1644182 L289.300963,73.1428571 L279.405714,67.4402853 L307.985326,21.2114286 L326.947272,32.1373548 C337.994818,38.5014551 340.746063,48.6142164 334.99297,57.9213369 C329.200907,67.2909639 318.674353,69.7524516 307.692755,63.4259711 L298.56011,58.1644182 L298.56011,58.1644182 Z" id="Fill-23" fill="#0A0B09"></path>
            <path d="M256.886078,307.2 C255.615441,307.2 254.469084,306.381992 254.18557,305.180242 C253.582292,302.6372 253.209451,300.038221 253.077403,297.458488 C253.005554,296.040207 254.184275,294.834247 255.711241,294.766881 C257.212314,294.72538 258.535382,295.795406 258.608526,297.214289 C258.726333,299.50411 259.0571,301.813177 259.591765,304.07533 C259.92059,305.461733 258.976836,306.834302 257.484177,307.139852 C257.283516,307.181354 257.083503,307.2 256.886078,307.2" id="Fill-24" fill="#1A1919"></path>
            <path d="M277.176595,334.994286 L275.307079,330.379178 L278.016041,329.283337 C320.014562,306.436049 346.099756,262.612904 346.099756,214.882696 C346.099756,143.103385 287.635273,84.7064906 215.772303,84.7064906 C143.908167,84.7064906 85.4436839,143.103385 85.4436839,214.882696 C85.4436839,263.432164 112.198686,307.624471 155.269249,330.214394 L152.952029,334.623959 C108.235219,311.170523 80.4571429,265.28962 80.4571429,214.882696 C80.4571429,140.356796 141.159565,79.7257143 215.772303,79.7257143 C290.384458,79.7257143 351.085714,140.356796 351.085714,214.882696 C351.085714,264.486663 323.951213,310.025772 280.272634,333.727839 L280.01672,333.846623 L277.176595,334.994286" id="Fill-25" fill="#1A1919"></path>
            <path d="M255.579969,174.811429 C254.799207,174.811429 254.03132,174.446598 253.542611,173.759893 C252.737267,172.629506 252.996546,171.057792 254.120868,170.24928 L297.941915,138.71026 C298.49793,138.309534 299.191486,138.156541 299.863973,138.283643 C300.535873,138.411334 301.126421,138.809705 301.498073,139.386962 L319.226189,166.868712 L333.461943,158.864799 C334.672301,158.189862 336.194027,158.622951 336.86944,159.832777 C337.544852,161.04731 337.112916,162.57901 335.906655,163.258654 L319.623594,172.412961 C318.471179,173.059653 317.018515,172.697765 316.301548,171.585031 L298.723848,144.336301 L257.034389,174.340679 C256.593088,174.659024 256.08331,174.811429 255.579969,174.811429" id="Fill-26" fill="#1A1919"></path>
            <path d="M260.392306,138.24 C246.757234,138.241163 234.393069,128.954359 231.187893,115.253936 C228.391663,103.302789 233.174456,91.0805529 243.371675,84.1142857 L246.226074,88.210858 C237.737499,94.0078394 233.756147,104.182952 236.083498,114.131189 C239.188788,127.40171 252.618212,135.698403 266.024132,132.623938 C278.171485,129.837431 286.43091,118.486051 285.236387,106.220186 L285.214059,105.985747 L285.362714,104.397031 L290.366431,104.853692 L290.261845,105.981093 C291.566243,120.630324 281.673383,134.142264 267.158136,137.470947 C264.893067,137.991018 262.624472,138.24 260.392306,138.24" id="Fill-27" fill="#1A1919"></path>
            <path d="M245.632894,84.7158234 C235.70969,91.585107 231.069724,103.528856 233.807864,115.208137 C236.928002,128.514565 248.76003,137.807861 262.579616,137.807861 C262.581365,137.807861 262.580782,137.807861 262.582532,137.807861 C264.814451,137.807861 267.057451,137.553763 269.248545,137.051905 C283.509616,133.788391 293.295767,120.478506 292.012137,106.09173 L292.096701,105.151395 L287.565211,104.738846 L287.43749,106.096915 L287.459652,106.289361 C288.656385,118.545403 280.385396,129.887615 268.222108,132.671743 C254.7991,135.74166 241.351015,127.454383 238.241375,114.19405 C235.927225,104.323416 239.841102,94.2309509 248.217651,88.4178153 L245.632894,84.7158234 Z M262.579616,138.24 C248.554159,138.24 236.547753,128.809572 233.382125,115.306088 C230.586249,103.381929 235.367933,91.1869628 245.564076,84.2370132 L245.744286,84.1142857 L248.825349,88.5272905 L248.645139,88.650018 C240.294251,94.3415785 236.377458,104.329754 238.667114,114.096099 C241.721933,127.124229 254.93557,135.269188 268.122963,132.251128 C280.073965,129.515399 288.199737,118.371971 287.024582,106.330847 L287.00242,106.097491 L287.1698,104.268102 L292.571429,104.760741 L292.447789,106.092306 C293.750666,120.654242 283.819297,134.161183 269.34769,137.472521 C267.123936,137.981869 264.847693,138.24 262.582532,138.24 C262.581948,138.24 262.580782,138.24 262.579616,138.24 L262.579616,138.24 Z" id="Fill-28" fill="#1A1919"></path>
            <path d="M152.137143,236.982857 L122.148571,193.828571" id="Fill-29" fill="#0A0B09"></path>
            <path d="M152.591838,239.177143 C151.816386,239.177143 151.053656,238.805844 150.571384,238.110544 L121.141799,195.62515 C120.351313,194.485238 120.614423,192.906033 121.729315,192.100171 C122.846521,191.291354 124.388751,191.563325 125.176925,192.701464 L154.607666,235.186858 C155.396996,236.32677 155.133886,237.905975 154.018993,238.711836 C153.584717,239.026376 153.085675,239.177143 152.591838,239.177143" id="Fill-30" fill="#0A0B09"></path>
            <path d="M151.072696,253.074286 L97.6133667,253.074286 C96.6659234,253.074286 95.7982709,252.558244 95.3650357,251.737294 C94.9318006,250.91692 95.0068631,249.92971 95.5600802,249.179522 L137.747612,191.928792 C138.559706,190.825947 140.137202,190.571665 141.274962,191.364425 C142.409175,192.15661 142.668643,193.69438 141.855367,194.7978 L102.536762,248.153766 L151.072696,248.153766 C152.468151,248.153766 153.6,249.255461 153.6,250.614314 C153.6,251.972591 152.468151,253.074286 151.072696,253.074286" id="Fill-31" fill="#0A0B09"></path>
            <path d="M130.925458,253.805714 C129.714021,253.805714 128.731429,252.710573 128.731429,251.360375 L128.731429,236.503054 C128.731429,235.152284 129.714021,234.057143 130.925458,234.057143 C132.137407,234.057143 133.12,235.152284 133.12,236.503054 L133.12,251.360375 C133.12,252.710573 132.137407,253.805714 130.925458,253.805714" id="Fill-32" fill="#0A0B09"></path>
            <path d="M170.116437,174.811429 C169.518038,174.811429 168.919054,174.597951 168.441036,174.165732 L150.865388,158.252013 L142.00218,164.242248 C140.908815,164.984448 139.420413,164.740557 138.614561,163.685452 L122.292396,142.224828 L94.8706219,166.977099 C93.8427071,167.901778 92.2637272,167.818142 91.3404155,166.79462 C90.4165194,165.768758 90.497163,164.18727 91.5221559,163.261422 L120.961191,136.689037 C121.479531,136.221141 122.172599,135.992457 122.866836,136.056208 C123.563995,136.121128 124.200379,136.474974 124.62405,137.031185 L141.161849,158.774301 L149.691964,153.009826 C150.643325,152.367054 151.913756,152.455369 152.766942,153.226812 L171.794177,170.455319 C172.818001,171.382338 172.897476,172.963825 171.971242,173.988517 C171.476861,174.534785 170.798402,174.811429 170.116437,174.811429" id="Fill-33" fill="#1A1919"></path>
            <path d="M317.092648,301.348571 C316.166916,301.348571 315.280404,300.825584 314.859931,299.933733 C314.550776,299.279133 307.292569,283.658188 307.200861,263.567024 C307.114344,244.874536 313.507957,218.801337 344.451083,200.747287 C345.627716,200.061515 347.138304,200.459239 347.823519,201.636828 C348.509888,202.814417 348.113063,204.326233 346.934701,205.012005 C323.781573,218.522526 312.071773,238.159394 312.133489,263.375378 C312.180208,282.406711 319.250385,297.676111 319.323059,297.827928 C319.902147,299.06151 319.373816,300.531186 318.141236,301.112476 C317.801512,301.273529 317.443908,301.348571 317.092648,301.348571" id="Fill-34" fill="#1A1919"></path>
            <path d="M334.870689,197.554828 C333.845272,197.526274 332.909528,196.847394 332.600913,195.810718 C332.217182,194.51764 332.952618,193.158715 334.242978,192.772947 C338.740023,191.433834 341.544344,190.957744 341.661967,190.938514 C342.988429,190.708919 344.246181,191.612732 344.468617,192.940191 C344.692217,194.269398 343.797234,195.528094 342.469024,195.753028 C342.442821,195.756524 339.814353,196.20814 335.635822,197.454599 C335.380195,197.528605 335.122822,197.562404 334.870689,197.554828 Z M315.306243,206.194962 C314.47997,206.171653 313.686888,205.729361 313.250169,204.957244 C312.585773,203.783044 312.998618,202.293004 314.171355,201.63044 C316.324091,200.410204 318.561841,199.247658 320.822883,198.171939 C322.039874,197.593288 323.494441,198.1125 324.073239,199.328657 C324.650874,200.54598 324.13438,202.002804 322.916806,202.581455 C320.760577,203.607642 318.627058,204.71716 316.574476,205.879123 C316.173277,206.105805 315.734811,206.2072 315.306243,206.194962 Z M297.886963,219.473626 C297.265075,219.455561 296.649009,219.202074 296.187833,218.714329 C295.259659,217.735926 295.298673,216.192275 296.27576,215.263403 C298.066891,213.559501 299.969823,211.89406 301.931567,210.311366 C302.982022,209.462328 304.516945,209.630737 305.361852,210.679068 C306.207923,211.729147 306.043134,213.265806 304.993843,214.111347 C303.134583,215.611876 301.332388,217.190491 299.63617,218.802321 C299.145879,219.269088 298.512927,219.491108 297.886963,219.473626 Z M282.505706,236.250416 C282.097519,236.238762 281.687003,236.124547 281.312007,235.897865 C280.160232,235.199172 279.792806,233.69806 280.490392,232.544255 C281.739992,230.481974 283.09091,228.446499 284.507046,226.494937 C285.298381,225.402319 286.82457,225.161651 287.914039,225.952416 C289.004091,226.744345 289.246907,228.271097 288.456154,229.361385 C287.11921,231.205142 285.842242,233.128733 284.663682,235.076216 C284.190861,235.854743 283.354689,236.274891 282.505706,236.250416 L282.505706,236.250416 Z" id="Fill-35" fill="#FFFFFE"></path>
            <path d="M335.223007,198.2678 C335.354284,198.271738 335.490557,198.253891 335.622266,198.215831 C337.473709,197.664012 339.164605,197.223286 340.660209,196.88322 C341.58419,196.673129 342.428899,196.506396 342.579713,196.487011 C343.272908,196.369717 343.7397,195.71368 343.622954,195.020263 C343.506755,194.327394 342.850796,193.858871 342.155594,193.979049 C341.824951,194.03306 341.110283,194.17244 340.161208,194.386754 C338.605762,194.737996 336.839928,195.196705 334.896912,195.774798 C334.22307,195.97608 333.839332,196.685124 334.039347,197.358554 C334.197485,197.88931 334.67858,198.252652 335.223007,198.2678 Z M331.811366,198.021204 C331.245971,196.117578 332.329199,194.116068 334.232778,193.547455 C336.227991,192.953832 338.044065,192.482072 339.649158,192.119619 C340.643267,191.895136 341.403692,191.746832 341.770132,191.687025 C343.7279,191.348444 345.586736,192.676132 345.915277,194.635147 C346.244923,196.593089 344.925554,198.447351 342.927237,198.784756 C342.190139,198.883026 339.367917,199.524734 336.277245,200.445863 C335.90778,200.552737 335.530793,200.602176 335.157078,200.591095 C333.616377,200.547684 332.258472,199.521818 331.811366,198.021204 Z M315.698592,206.883151 C315.927146,206.889672 316.153999,206.834261 316.359276,206.718375 C318.433306,205.545264 320.586964,204.426376 322.762429,203.391911 C323.396896,203.090637 323.666744,202.331602 323.365798,201.697915 C323.063556,201.063389 322.304302,200.793166 321.670322,201.094352 C319.430391,202.159126 317.222299,203.306019 315.104621,204.505366 C314.493819,204.850159 314.278739,205.6261 314.625367,206.238183 C314.847844,206.631189 315.254256,206.870627 315.698592,206.883151 Z M312.602588,207.38326 C311.623138,205.653725 312.23175,203.458046 313.96046,202.482202 C316.125296,201.256146 318.382612,200.083685 320.67255,198.995141 C322.46608,198.143082 324.61075,198.906384 325.464957,200.699704 C326.316931,202.493657 325.554127,204.639283 323.76014,205.491152 C321.634743,206.501808 319.529846,207.595364 317.502907,208.741839 C316.926349,209.067325 316.281258,209.224915 315.632894,209.206453 C314.383045,209.171156 313.230184,208.491906 312.602588,207.38326 Z M299.227215,219.773257 C300.946203,218.141173 302.768633,216.5467 304.645407,215.03332 C305.192295,214.592999 305.278171,213.792783 304.836938,213.245622 C304.395355,212.698184 303.595312,212.611874 303.047682,213.054123 C301.110533,214.615651 299.235608,216.25571 297.474343,217.92978 C296.964771,218.413796 296.944324,219.217628 297.430337,219.72951 C297.663458,219.975853 297.978854,220.113799 298.314899,220.123718 C298.652229,220.132963 298.977142,220.011129 299.227215,219.773257 Z M298.249406,222.447025 L298.248107,222.446988 C297.304012,222.419587 296.403387,222.025942 295.743261,221.328374 C294.375149,219.887446 294.433008,217.612846 295.873144,216.244935 C297.680257,214.527286 299.602772,212.8456 301.587996,211.245319 C303.134916,209.99607 305.399062,210.240331 306.646332,211.786591 C307.893695,213.333412 307.6507,215.597698 306.103911,216.843077 C304.276433,218.316707 302.501174,219.869909 300.828555,221.457968 C300.125942,222.126303 299.199235,222.47353 298.249406,222.447025 Z M282.964856,236.852366 L282.965177,236.852375 C283.421006,236.865505 283.850629,236.636929 284.091192,236.241168 C285.282409,234.274437 286.574397,232.329372 287.929524,230.46212 C288.341558,229.894491 288.214899,229.098723 287.646732,228.686295 C287.077959,228.273815 286.282104,228.400058 285.869419,228.96938 C284.477737,230.885619 283.147059,232.888226 281.914856,234.920074 C281.550555,235.522115 281.742395,236.304712 282.341339,236.667739 C282.534529,236.784422 282.746849,236.846147 282.964856,236.852366 Z M281.137965,238.65626 C279.439847,237.627015 278.897884,235.416112 279.926685,233.71592 C281.192758,231.628223 282.559037,229.572036 283.987958,227.604524 C285.154029,225.995861 287.403864,225.638982 289.011877,226.805129 C290.618997,227.971724 290.976956,230.220703 289.810766,231.827279 C288.493512,233.642343 287.23721,235.533685 286.078492,237.446755 C285.398794,238.564969 284.181676,239.212553 282.898405,239.175646 C282.281857,239.15803 281.678107,238.982496 281.137965,238.65626 Z" id="Stroke-36" fill="#1A1919" fill-rule="nonzero"></path>
            <path d="M178.303401,126.537143 L146.47633,126.537143 C145.039502,126.537143 143.710232,126.254169 142.524762,125.697694 C139.801337,124.416026 138.24,122.01312 138.24,119.105242 C138.24,116.189077 139.791984,113.800379 142.496704,112.550678 C143.648854,112.019067 144.940128,111.749709 146.336037,111.749709 L149.515413,111.749709 C150.611446,111.72011 151.588232,111.541919 152.274495,111.234082 C152.624642,111.078387 152.899381,110.760486 153.030905,110.36385 C153.103389,110.147772 153.189903,109.723312 152.963097,109.309507 C152.480842,108.428619 150.827146,108.233261 150.520256,108.230893 L141.214782,108.230893 C139.834656,108.230893 138.71524,107.097224 138.71524,105.699524 C138.71524,104.301233 139.834656,103.167563 141.214782,103.167563 L150.536624,103.167563 C151.041676,103.171707 155.388401,103.301354 157.336126,106.853914 C158.181387,108.399612 158.338632,110.264987 157.771032,111.977035 C157.193496,113.717499 155.927942,115.134734 154.298212,115.865256 C153.000508,116.446003 151.414036,116.764496 149.580298,116.812447 L146.336037,116.813039 C145.66088,116.813039 145.066392,116.929662 144.570107,117.158172 C143.401005,117.698663 143.240253,118.413201 143.240253,119.105242 C143.240253,119.770644 143.404512,120.527805 144.630316,121.105 C145.150567,121.350086 145.771945,121.473813 146.47633,121.473813 L178.300479,121.473813 C179.388329,121.444213 180.722275,120.992521 180.722275,119.019995 C180.722275,118.123123 180.520605,117.132124 179.021815,116.578017 C178.569372,116.411667 178.026908,116.325828 177.414299,116.325828 L175.636678,116.325828 C175.635509,116.325828 175.634339,116.325828 175.63317,116.325828 C175.328619,116.325828 172.723273,116.268404 170.83751,114.36159 C170.018554,113.532205 169.040599,112.041563 169.040599,109.646944 C169.040599,106.804778 170.53822,104.496591 173.149411,103.316154 C174.229662,102.827758 175.439099,102.580305 176.744987,102.580305 L205.901243,102.580305 C207.846046,102.533537 207.846046,101.08611 207.846046,100.609554 C207.846046,99.8310816 207.671265,99.0437287 206.401619,98.566581 C206.001202,98.4156224 205.518947,98.3386631 204.970053,98.3386631 L182.004196,98.3386631 C179.178475,98.2859756 175.044527,96.3643611 175.044527,91.2909672 C175.044527,86.0956224 180.010291,83.8703146 182.636681,83.4203987 C184.0057,83.1806409 185.288791,84.1148084 185.517935,85.4935638 C185.749417,86.8717273 184.832256,88.1782594 183.470836,88.4120973 C183.451546,88.4162413 180.04478,89.0709873 180.04478,91.2909672 C180.04478,92.5448118 180.731043,93.2119897 182.083111,93.2771091 L204.970053,93.2753331 C206.11402,93.2753331 207.180826,93.4582595 208.141244,93.8193762 C211.132394,94.944166 212.845714,97.4192955 212.845714,100.609554 C212.845714,103.150395 211.813396,104.723325 210.947676,105.594149 C208.950264,107.604563 206.20521,107.603379 205.88663,107.643635 L176.744987,107.643635 C176.145822,107.643635 175.621479,107.74309 175.187742,107.939632 C174.236092,108.370012 174.040852,108.933591 174.040852,109.646944 C174.040852,110.074956 174.040852,111.210994 175.671166,111.262498 L177.414299,111.262498 C178.613214,111.262498 179.729707,111.45016 180.734551,111.821341 C183.905158,112.991714 185.722528,115.616618 185.722528,119.019995 C185.722528,124.529689 181.285198,126.534775 178.303401,126.537143" id="Fill-37" fill="#1A1919"></path>
            <path d="M148.48,280.137143 C139.558852,289.111477 130.956804,295.198186 118.491429,305.737143" id="Fill-38" fill="#1A1919"></path>
            <path d="M118.850653,309.394286 C118.130267,309.394286 117.41406,309.084079 116.909134,308.48073 C115.992985,307.386169 116.120112,305.740671 117.192036,304.806394 C121.59313,300.968119 125.448117,297.749647 129.17538,294.63539 C136.2533,288.722569 142.366727,283.61726 148.496269,277.257106 C149.487023,276.230194 151.103264,276.221662 152.107148,277.227853 C153.111032,278.238311 153.124163,279.888684 152.1352,280.914987 C145.812879,287.474428 139.600376,292.662621 132.407266,298.669907 C128.700892,301.76649 124.866795,304.968506 120.506882,308.769606 C120.026427,309.189513 119.436152,309.394286 118.850653,309.394286" id="Fill-39" fill="#1A1919"></path>
            <path d="M264.348998,206.262857 C263.35586,206.262857 262.416988,205.65863 262.027785,204.66694 C261.519546,203.37048 262.147405,201.901551 263.428215,201.387692 C308.540745,183.277404 342.956321,180.690979 343.297676,180.667354 C344.702191,180.585845 345.863381,181.621832 345.95966,183.012205 C346.054773,184.40376 345.017871,185.609852 343.643699,185.707308 C343.308179,185.730343 309.60799,188.283692 265.267447,206.083892 C264.965771,206.204974 264.654759,206.262857 264.348998,206.262857" id="Fill-40" fill="#1A1919"></path>
            <polyline id="Fill-41" fill="#1A1919" points="146.285714 157.712799 154.331429 159.451429 149.883919 155.062857 146.285714 157.712799"></polyline>
            <path d="M426.767072,239.177143 C426.693669,239.177143 426.619689,239.173633 426.545131,239.167784 C425.185166,239.044367 424.180652,237.829501 424.302604,236.453783 C424.8563,230.185259 425.136616,223.793318 425.136616,217.456359 C425.136616,158.990103 400.833524,102.638311 358.459019,62.8495316 C357.458552,61.9101596 357.399599,60.3273821 358.328976,59.314311 C359.257197,58.30007 360.823498,58.2433333 361.821653,59.1832902 C405.200093,99.9137816 430.08,157.602102 430.08,217.456359 C430.08,223.940716 429.792749,230.483565 429.226915,236.898318 C429.112477,238.198582 428.032828,239.177143 426.767072,239.177143" id="Fill-42" fill="#0A0B09"></path>
            <path d="M3.59403322,241.371429 C2.32829832,241.371429 1.2435495,240.408663 1.11160482,239.116962 C0.374232504,231.826447 0,224.382897 0,216.996809 C0,156.235867 25.6696641,97.9099841 70.4275213,56.9742729 C71.4492169,56.0402379 73.0267149,56.1158754 73.9544145,57.13962 C74.8838656,58.1633646 74.8091358,59.7499928 73.7903594,60.6816824 C30.0693773,100.669873 4.9940481,157.643663 4.9940481,216.996809 C4.9940481,224.213446 5.35952322,231.485199 6.08113223,238.610367 C6.22008283,239.987673 5.22057262,241.218395 3.8491652,241.357943 C3.76334277,241.367911 3.67810417,241.371429 3.59403322,241.371429" id="Fill-43" fill="#0A0B09"></path>
            <path d="M390.121733,231.862857 C390.070359,231.862857 390.02018,231.861694 389.969403,231.859949 C388.206555,231.779683 386.845739,230.323266 386.929372,228.60802 C387.027938,226.56415 387.093052,224.506321 387.121726,222.495022 C387.146815,220.779195 388.588874,219.394319 390.359488,219.429217 C392.124128,219.453646 393.533331,220.864695 393.508242,222.582267 C393.478373,224.662199 393.411467,226.787498 393.308719,228.900002 C393.228671,230.565808 391.815884,231.862857 390.121733,231.862857" id="Fill-44" fill="#0A0B09"></path>
            <path d="M367.503773,129.558808 C366.391109,129.558808 365.309468,128.988175 364.724201,127.971897 C362.679642,124.426609 360.480564,120.894754 358.190803,117.475624 C357.225499,116.032978 357.636558,114.097379 359.108974,113.151774 C360.58139,112.205585 362.557936,112.609175 363.525625,114.050653 C365.892946,117.585429 368.165406,121.235849 370.277977,124.900872 C371.143647,126.403677 370.603125,128.307736 369.069856,129.155218 C368.574079,129.429729 368.035346,129.558808 367.503773,129.558808 Z M382.892548,163.832462 C381.549595,163.832462 380.298518,162.993741 379.861208,161.674917 C378.56837,157.785613 377.129364,153.898645 375.582969,150.120314 C374.927303,148.519969 375.721381,146.702352 377.35667,146.061046 C378.990765,145.41682 380.846796,146.196549 381.503656,147.797478 C383.102552,151.704304 384.589883,155.723271 385.926273,159.742822 C386.471568,161.383467 385.555186,163.145014 383.880522,163.678268 C383.55239,163.782816 383.220083,163.832462 382.892548,163.832462 Z M391.046319,200.411429 C389.449213,200.411429 388.07106,199.240958 387.881937,197.650542 C387.399286,193.598868 386.773449,189.50806 386.020536,185.491429 C385.703144,183.795298 386.849218,182.168086 388.582349,181.857363 C390.314884,181.544887 391.975826,182.668048 392.294412,184.364764 C393.071786,188.515146 393.719696,192.740873 394.218456,196.928051 C394.421301,198.641121 393.169032,200.190651 391.419196,200.390986 C391.294506,200.406172 391.169816,200.411429 391.046319,200.411429 L391.046319,200.411429 Z" id="Fill-45" fill="#0A0B09"></path>
            <path d="M345.087784,98.7428571 C344.225241,98.7428571 343.367299,98.3993669 342.76007,97.7272015 C341.453606,96.2841036 340.099415,94.8360673 338.734298,93.4253431 C337.583666,92.2346501 337.66187,90.3783762 338.909106,89.2798659 C340.158067,88.1808069 342.103388,88.2576258 343.253444,89.4472214 C344.662263,90.9056831 346.062456,92.4014568 347.412047,93.8928409 C348.522427,95.1191998 348.37982,96.9705354 347.095207,98.0289901 C346.515003,98.5085595 345.799668,98.7428571 345.087784,98.7428571" id="Fill-46" fill="#0A0B09"></path>
            <path d="M87.1917625,98.7428571 C86.4827996,98.7428571 85.7698053,98.510497 85.1886977,98.0370084 C83.8980513,96.9842634 83.7488869,95.1336024 84.8569653,93.9060393 C86.20578,92.4093988 87.6006687,90.9105661 89.0047723,89.4528349 C90.1531654,88.2614411 92.1026692,88.1792382 93.3541528,89.2708926 C94.6090919,90.3636429 94.6943287,92.216496 93.5459356,93.4106299 C92.1867542,94.8212314 90.8362116,96.2723864 89.5300152,97.7213493 C88.9212632,98.395961 88.0591045,98.7428571 87.1917625,98.7428571" id="Fill-47" fill="#0A0B09"></path>
            <path d="M64.7688762,129.586153 C64.236915,129.586153 63.6971573,129.457263 63.1999805,129.183663 C61.6568733,128.33533 61.1099189,126.427166 61.9777293,124.918563 C64.0953785,121.238742 66.361761,117.587043 68.713905,114.063062 C69.6800712,112.611873 71.6711773,112.203525 73.1501133,113.150283 C74.6338472,114.095284 75.0524592,116.035085 74.0838941,117.48393 C71.8085156,120.893667 69.6159,124.427608 67.5654206,127.989084 C66.9782842,129.011419 65.8897729,129.586153 64.7688762,129.586153 Z M49.3935791,163.85401 C49.0655264,163.85401 48.7308766,163.803625 48.4028239,163.699927 C46.71878,163.165618 45.7963941,161.398648 46.3433485,159.754123 C47.674151,155.748561 49.1608836,151.732453 50.7651633,147.813599 C51.4212687,146.208328 53.2918289,145.425612 54.9314928,146.06772 C56.5759545,146.710415 57.3759953,148.53187 56.7186904,150.138313 C55.1677867,153.928277 53.7296324,157.815494 52.4420104,161.687479 C52.0024078,163.012707 50.7447724,163.85401 49.3935791,163.85401 Z M41.2444377,200.411429 C41.1220927,200.411429 40.9973487,200.404984 40.8732044,200.390923 C39.1141941,200.192315 37.8529604,198.638014 38.0556694,196.920842 C38.5492478,192.738934 39.1957575,188.513087 39.974208,184.361058 C40.2938645,182.660877 41.9623154,181.526055 43.7063324,181.845352 C45.4473508,182.157618 46.600633,183.78984 46.2815763,185.491779 C45.527115,189.507886 44.9021955,193.594298 44.4254096,197.637356 C44.2376939,199.234425 42.8511164,200.411429 41.2444377,200.411429 L41.2444377,200.411429 Z" id="Fill-48" fill="#0A0B09"></path>
            <path d="M42.1585683,231.862857 C40.4707033,231.862857 39.0612674,230.568831 38.9777983,228.906661 C38.8728657,226.828658 38.8019169,224.702965 38.7661445,222.588904 C38.7375265,220.872065 40.140404,219.458232 41.9010064,219.428571 C41.9188926,219.428571 41.9373751,219.428571 41.9546651,219.428571 C43.6902268,219.428571 45.112183,220.787735 45.1408009,222.487127 C45.1747848,224.534305 45.2439449,226.59079 45.3447041,228.600747 C45.4305581,230.317004 44.0765696,231.775619 42.318352,231.858786 C42.2646933,231.861694 42.2110346,231.862857 42.1585683,231.862857" id="Fill-49" fill="#0A0B09"></path>
            <polyline id="Fill-50" fill="#C1933F" points="168.228571 297.582285 168.228571 262.601764 154.570029 261.929028 151.719104 258.194286 150.674286 280.990439 152.531182 301.348571 161.028702 300.818068 168.228571 297.582285"></polyline>
            <path d="M173.679901,295.75331 C173.001133,303.701975 172.286549,311.79513 168.944121,319.20095 C166.888176,323.754969 163.892353,327.923298 160.913283,332.060541 C159.683991,333.769665 158.453543,335.479365 157.223096,337.187913 C155.312724,339.842266 153.353251,342.614052 152.933859,345.736412 C152.514467,348.859349 154.125602,352.433024 157.479583,353.495111 C158.70541,353.883679 160.035217,353.907281 161.337297,353.926853 C164.082408,353.969452 165.042504,355.459251 167.627022,354.641243 C169.751711,353.9683 177.956429,350.280069 180.022195,349.475877 C182.403371,348.547919 185.568452,354.514598 188.171456,354.514598 C196.206337,354.514598 195.44034,357.143046 204.445138,353.700044 C204.130305,354.181869 217.192114,351.387632 216.602308,351.192485 C219.672651,351.50852 226.118348,351.199968 229.210065,351.212057 C233.702066,351.229327 238.649852,352.419784 243.135498,352.627596 C242.52894,352.66156 246.919847,352.592481 246.312133,352.627596 C257.292002,354.086886 248.152606,351.397418 259.183887,352.514768 C261.718147,352.771511 266.096346,352.19643 267.303109,354.178991 C271.606788,355.093709 276.444238,353.608515 279.173753,350.533358 C281.903845,347.458777 282.381004,342.95887 280.345278,339.490539 C279.186462,337.517765 277.284755,335.89614 275.024313,334.915797 C274.105232,334.517443 273.076393,334.184138 272.489475,333.443268 C272.156157,333.021887 272.005384,332.512431 271.847101,332.017942 C270.428331,327.596325 267.882517,323.459657 264.452861,320.001689 C264.938108,320.214106 265.422777,320.426523 265.907446,320.63894 C260.672556,314.970451 258.049911,307.475979 258.751209,300.189895 C258.904293,298.597053 258.84537,296.482667 257.10599,296.037109 C256.492499,295.879379 255.835683,296.008901 255.218148,296.152816 C252.188821,296.85857 249.265785,297.917778 246.54898,299.293597 C246.240501,299.4496 245.907183,299.643021 245.831507,299.948695 C245.756987,300.254368 246.171758,300.611275 246.451353,300.41843 C238.027118,301.021718 229.602306,301.624431 221.178072,302.227719 C217.840843,302.46604 214.500727,302.705514 211.152522,302.727964 C207.372217,302.753869 203.589024,302.502307 199.856088,301.978459 C191.241798,300.769581 182.983357,298.126742 174.785571,295.497143 L173.679901,295.75331" id="Fill-51" fill="#688496"></path>
            <path d="M152.034675,253.215955 C152.974915,247.706647 153.915156,242.196759 154.855397,236.687451 C155.250181,234.376048 155.646718,232.055362 156.386062,229.829825 C159.311905,221.024563 167.463383,214.613088 176.382239,211.880481 C185.302262,209.147293 194.91783,209.650882 204.11467,211.235911 C213.310925,212.820939 222.974381,207.225766 232.187573,208.710424 C239.896963,209.953151 247.650738,218.47761 254.291407,214.394364 C256.356433,213.124369 258.563955,211.380373 260.920981,211.961705 C261.669669,212.14678 262.340102,212.558701 262.981334,212.986288 C269.895316,217.602132 276.442545,222.929266 278.371499,230.980885 C277.274746,231.547132 278.761611,238.833505 279.262684,237.710293 C283.420767,245.601785 280.891461,247.928853 280.263661,256.813598 C280.219861,257.435542 280.146277,258.100998 279.739228,258.575579 C279.30882,259.076847 278.613275,259.245097 277.965619,259.385498 C275.897673,259.83339 273.829143,260.281283 271.760614,260.729175 C270.566333,260.987351 269.28562,261.240306 268.152075,260.787192 C265.897249,259.885606 265.549184,256.952259 265.079064,254.583419 C264.609528,252.213999 262.618086,249.429756 260.37202,250.351649 C258.878731,250.96489 258.462339,252.831882 258.249178,254.422712 C256.732529,265.718069 257.224842,276.762793 258.508475,288.086579 C258.651555,289.349612 256.772241,291.167289 255.938289,292.131534 C255.348448,292.813816 254.418135,293.078374 253.543303,293.309862 C249.235131,294.449899 246.994905,297.76964 242.687318,298.909677 C235.412424,300.834106 226.020528,300.587533 218.51437,301.157841 C211.92334,301.657949 205.298439,301.098084 198.730185,300.362426 C190.652874,299.457359 181.664523,297.73599 177.037487,291.097669 C173.280612,285.705555 173.530564,278.575829 174.284509,272.060503 C175.038454,265.545758 176.10659,258.694514 173.6059,252.625341 C173.372884,252.059093 173.086724,251.477181 172.577476,251.13372 C171.697387,250.540204 170.431858,250.892949 169.680833,251.64079 C168.929809,252.389211 168.568312,253.429458 168.23076,254.431994 C167.321471,257.130372 166.399918,259.920996 166.634103,262.757454 C162.476019,261.233924 158.31852,259.710394 154.160436,258.187444 C152.702771,257.653686 151.039538,256.893082 150.718921,255.383476 C150.491745,254.3148 151.154586,253.13067 152.187683,252.75762 C152.653131,252.58937 152.964987,253.068591 152.783363,251.938418 C152.577211,250.656819 152.412523,251.611201 152.783363,251.938418" id="Fill-52" fill="#F6F3EB"></path>
            <path d="M245.028571,254.537143 C245.028571,250.49756 241.753536,247.222857 237.714286,247.222857 C233.675035,247.222857 230.4,250.49756 230.4,254.537143 C230.4,258.576726 233.675035,261.851429 237.714286,261.851429 C241.753536,261.851429 245.028571,258.576726 245.028571,254.537143" id="Fill-53" fill="#F3B62B"></path>
            <path d="M217.353817,303.542857 C190.31024,303.542857 179.618967,298.331709 175.411972,293.959363 C172.680843,291.121724 172.604436,288.650626 172.618223,288.184173 C172.650395,286.939329 173.655179,285.922775 174.907569,285.991901 C176.10768,286.025011 177.060186,287.01194 177.076271,288.213798 C177.124529,288.609383 178.848001,299.032841 217.353817,299.032841 C243.409844,299.032841 251.830729,294.167902 254.529112,291.266946 C255.98602,289.703195 255.933742,288.551875 255.931444,288.50308 C255.859632,287.302965 256.726539,286.196373 257.907117,286.064512 C259.095739,285.933231 260.16027,286.700584 260.348128,287.888501 C260.395811,288.185334 260.733037,290.874847 258.181149,293.903598 C252.788979,300.299177 239.052332,303.542857 217.353817,303.542857" id="Fill-54" fill="#1A1919"></path>
            <path d="M235.155519,245.426262 C232.348825,245.426262 230.066113,247.709045 230.066113,250.514594 C230.066113,253.319526 232.348825,255.602309 235.155519,255.602309 C237.959747,255.602309 240.242459,253.319526 240.242459,250.514594 C240.242459,247.709045 237.959747,245.426262 235.155519,245.426262 Z M235.155519,260.388571 C229.711038,260.388571 225.28,255.959245 225.28,250.514594 C225.28,245.069943 229.711038,240.64 235.155519,240.64 C240.599999,240.64 245.028571,245.069943 245.028571,250.514594 C245.028571,255.959245 240.599999,260.388571 235.155519,260.388571 L235.155519,260.388571 Z" id="Fill-55" fill="#1A1919"></path>
            <path d="M162.701864,264.045714 C158.829381,264.045714 153.958287,262.702432 149.709346,257.45547 C148.924764,256.485483 149.084847,255.072172 150.066454,254.297802 C151.048061,253.522854 152.480598,253.680274 153.266353,254.649683 C158.543226,261.16874 164.84803,259.657041 167.316122,258.70268 C168.490063,258.24836 169.809428,258.820167 170.265635,259.975355 C170.723601,261.130543 170.147185,262.433312 168.976762,262.886475 C167.852077,263.321117 165.545828,264.045714 162.701864,264.045714" id="Fill-56" fill="#1A1919"></path>
            <path d="M178.535076,331.337143 C177.757777,331.337143 177.000842,330.933921 176.58252,330.21209 C175.953583,329.131385 176.317796,327.744325 177.395891,327.114692 C188.325785,320.724414 201.189618,316.126168 214.592789,313.817708 C215.830301,313.598883 216.989849,314.43392 217.201628,315.66576 C217.411662,316.898767 216.586654,318.070503 215.35787,318.281158 C202.480074,320.499754 190.139871,324.907768 179.669607,331.02787 C179.312375,331.237359 178.920817,331.337143 178.535076,331.337143" id="Fill-57" fill="#1A1919"></path>
            <path d="M212.845714,350.946212 C206.356861,352.694297 198.912037,355.592438 192.145813,355.470562 C191.167746,355.453236 188.080613,355.423365 187.189769,355.054152 C185.744765,354.455526 181.029458,354.225514 180.241538,352.971505 C179.96533,352.531796 178.377861,353.095771 178.986682,349.824833 C179.147173,348.961544 177.960932,349.450243 178.730826,348.879696 C185.148737,344.123542 197.463544,338.33443 204.701357,338.088885 C205.466017,338.062598 206.436525,337.63424 206.81275,338.252582 C206.938933,338.45989 206.947074,338.707825 206.947655,338.944407 C206.952889,340.728936 206.733085,342.518244 206.923233,344.294408 C207.112799,346.07117 209.270129,347.472147 210.729089,348.665218" id="Fill-58" fill="#C0923F"></path>
            <path d="M172.351644,305.737143 C172.322869,305.737143 172.29355,305.735959 172.264232,305.735368 C171.101264,305.683295 170.196733,304.613429 170.245054,303.346515 L172.059545,255.204356 C172.07149,254.788363 171.876576,254.50137 171.757673,254.367636 C171.639313,254.233903 171.383047,254.010817 170.987247,254.010817 C170.417708,254.010817 169.946982,254.496636 169.915492,255.115595 L168.299173,281.539135 C168.035306,285.640483 167.763838,289.880889 168.731349,293.553816 C169.05331,294.7728 168.406131,296.04504 167.287684,296.394166 C166.171408,296.750394 165.001382,296.042673 164.68105,294.821322 C163.508309,290.370257 163.819954,285.507933 164.094679,281.218412 L165.708827,254.837478 C165.861935,251.809546 168.179727,249.417143 170.987247,249.417143 C172.433628,249.417143 173.783909,250.041428 174.789425,251.175201 C175.794399,252.308974 176.320504,253.801342 176.271097,255.376552 L174.456063,303.534688 C174.409913,304.769649 173.476064,305.737143 172.351644,305.737143" id="Fill-59" fill="#1A1919"></path>
            <path d="M150.198189,296.96 C149.116301,296.96 148.155277,296.198226 147.950691,295.108061 C147.741978,293.992814 142.925658,267.400714 150.701695,233.791076 C153.600095,221.261466 160.508263,215.235518 165.793892,212.387906 C171.568288,209.274898 176.674684,209.190905 176.889293,209.188571 C176.896958,209.188571 176.905212,209.188571 176.911108,209.188571 C178.165155,209.188571 179.188085,210.187744 179.199877,211.430731 C179.212848,212.678384 178.20112,213.700887 176.940587,213.716636 C176.217756,213.730052 159.913961,214.269593 155.163085,234.800748 C147.609911,267.44796 152.402648,294.020812 152.451583,294.284458 C152.680932,295.514029 151.85964,296.694604 150.616795,296.92092 C150.475884,296.947751 150.336152,296.96 150.198189,296.96" id="Fill-60" fill="#1A1919"></path>
            <path d="M166.091019,354.742857 C165.003369,354.742857 164.045796,353.969281 163.868682,352.881493 C163.671825,351.676444 164.509194,350.543688 165.738534,350.35129 C171.583853,349.435977 177.31942,345.810016 182.865679,342.302454 C187.495594,339.374363 192.284041,336.347227 197.278635,334.77389 L198.595081,334.357787 C208.101709,331.348297 222.949609,326.645933 238.558225,328.347345 C236.29524,325.812019 234.313894,322.479209 233.931213,318.389331 C233.819138,317.173467 234.730255,316.098771 235.971791,315.987772 C237.197647,315.868235 238.307363,316.771025 238.42118,317.98575 C239.139505,325.683374 248.097953,330.263355 248.188542,330.308324 C249.223348,330.828595 249.687908,332.036489 249.256448,333.096386 C248.824408,334.155712 247.649073,334.717537 246.526581,334.396494 C229.075406,329.352026 210.861192,335.117133 199.980629,338.562649 L198.656635,338.981598 C194.227641,340.375629 189.895625,343.114738 185.309262,346.015506 C179.371611,349.770111 173.230716,353.652792 166.449891,354.714396 C166.329686,354.73375 166.209481,354.742857 166.091019,354.742857" id="Fill-61" fill="#1A1919"></path>
            <path d="M189.804202,356.205714 C179.5388,356.205714 176.947867,352.164957 176.447925,351.102986 C175.964568,350.078722 176.52493,348.907248 177.699558,348.486282 C178.877739,348.064283 180.217632,348.554463 180.699803,349.578211 C182.432423,353.248105 195.050634,352.24915 203.033124,350.419627 C224.191818,347.100968 243.960269,347.429477 267.312429,351.46042 C268.558731,351.67581 269.366694,352.730033 269.122054,353.816797 C268.875045,354.902527 267.657769,355.611197 266.418575,355.393741 C243.65284,351.465069 224.409802,351.13811 204.024124,354.332803 C198.132032,355.688675 193.476764,356.205714 189.804202,356.205714" id="Fill-62" fill="#1A1919"></path>
            <path d="M209.762015,346.697143 C209.213077,346.697143 208.663533,346.515996 208.217597,346.146846 C205.830383,344.16795 202.142924,338.929561 205.272962,333.262592 C205.874007,332.176857 207.296641,331.752848 208.444806,332.320859 C209.597212,332.886013 210.044967,334.22604 209.443922,335.311776 C207.247564,339.29014 211.164655,342.681064 211.333093,342.822781 C212.294643,343.639368 212.381286,345.038824 211.522131,345.950842 C211.057412,346.444566 210.410925,346.697143 209.762015,346.697143" id="Fill-63" fill="#1A1919"></path>
            <path d="M269.603334,357.668571 C267.972849,357.668571 266.308782,357.399831 264.684667,356.841181 C263.51044,356.4366 262.88048,355.140531 263.278258,353.947371 C263.677194,352.754211 264.955063,352.114409 266.128711,352.517226 C271.113385,354.236693 275.441465,352.019733 277.351031,349.240594 C278.176116,348.039789 279.789231,344.871359 277.000152,341.363622 L260.933857,321.160468 C260.852796,321.056971 260.778104,320.945241 260.714413,320.828218 C257.419862,314.760686 255.58962,308.273284 255.271166,301.545368 C255.212107,300.286346 256.168627,299.216089 257.40944,299.156108 C258.620723,299.106711 259.702888,300.06759 259.761946,301.326612 C260.043344,307.287707 261.655879,313.047687 264.557864,318.449543 L280.498515,338.494511 C283.712005,342.537376 283.920448,347.655203 281.038149,351.85155 C278.481253,355.573926 274.161858,357.668571 269.603334,357.668571" id="Fill-64" fill="#1A1919"></path>
            <path d="M162.476932,355.474285 C158.106365,355.475452 153.93599,353.505101 151.382547,349.967571 C148.456668,345.91251 148.489749,340.86498 151.471521,336.797082 L166.937044,315.693261 C168.995426,311.085661 170.156081,306.247594 170.385361,301.310339 C170.444677,300.060563 171.491263,299.124106 172.701539,299.15503 C173.923792,299.214543 174.866005,300.276444 174.80897,301.524469 C174.548322,307.126871 173.218843,312.607914 170.857608,317.811811 C170.793159,317.95476 170.71274,318.090123 170.620914,318.216734 L155.015086,339.513098 C152.435407,343.033708 154.107094,346.114387 154.944933,347.276644 C156.895519,349.983908 161.20563,352.085538 166.054718,350.305979 C167.199974,349.882969 168.472988,350.493853 168.885919,351.674197 C169.29885,352.850456 168.700556,354.147493 167.549026,354.569919 C165.883043,355.181387 164.165729,355.474285 162.476932,355.474285" id="Fill-65" fill="#1A1919"></path>
            <polyline id="Fill-66" fill="#C1933F" points="265.19159 295.769811 264.045714 260.608985 277.704133 259.905492 280.555707 256 281.6 279.838377 279.664904 301.348571 271.961915 300.572511 265.19159 295.769811"></polyline>
            <path d="M263.977802,296.96 C263.391516,299.123017 262.673174,301.046559 261.846113,302.573955 C260.421952,305.202815 258.82475,307.875162 256.381704,309.487744 C255.131151,310.313396 253.714959,310.820344 252.410331,311.550086 C250.502342,312.622957 249.342862,314.737126 249.420844,317.002604 L249.507364,319.549852 L250.514864,319.577851 C252.656799,319.638613 254.816948,319.362204 256.813734,318.547871 C258.088763,318.027818 259.26418,317.319521 260.140762,316.321114 C260.468627,319.523046 260.550024,322.104845 260.720786,324.910631 C260.879596,327.525195 261.492634,330.093293 262.541687,332.471956 L263.977802,335.725714 L265.424163,334.263846 C267.460793,332.205674 268.480247,329.281938 268.188812,326.334969 L268.183689,326.278377 C268.045371,324.88442 267.907623,323.489271 267.769305,322.094122 L270.552169,328.856007 C271.08438,330.151672 271.877288,331.312708 272.875681,332.259288 L277.084415,335.725714 C278.833026,331.727916 278.630387,327.214831 277.525552,322.973388 L276.529436,319.148941 L280.789398,326.288504 C281.743962,327.887981 283.189753,329.099651 284.889412,329.724549 L288.182857,330.937411 L287.507775,326.46543 C287.186741,324.342325 286.520197,322.288323 285.499035,320.423757 C284.204084,318.058795 282.674619,315.80523 281.671103,313.288959 C280.215635,309.63965 279.946399,305.301107 280.199128,300.978648" id="Fill-67" fill="#6BB85B"></path>
            <path d="M262.639098,337.919325 C262.496835,337.919325 262.353377,337.905699 262.211114,337.879632 C261.472305,337.743374 260.847066,337.258768 260.531459,336.583401 L259.025148,333.346969 C257.803961,330.727254 257.090257,327.921516 256.904359,325.009142 L256.775246,322.810643 C256.727427,321.999017 256.68439,321.206942 256.629995,320.401833 C256.413015,320.497213 256.188264,320.589632 255.956937,320.679089 C253.743498,321.535739 251.203691,321.942737 248.439133,321.859204 L247.382923,321.830768 C246.157551,321.798777 245.169483,320.829565 245.126446,319.615681 L245.033796,317.083053 C244.922616,313.927191 246.592708,311.042661 249.39313,309.552113 C250.00462,309.227463 250.637032,308.943097 251.267052,308.660509 C252.048899,308.309792 252.789501,307.978625 253.426694,307.580514 C255.563025,306.245182 257.044828,303.852367 258.381978,301.51524 C259.129753,300.205975 259.8321,298.451204 260.407128,296.43932 C260.758601,295.216549 262.034182,294.504451 263.273302,294.855169 C264.506444,295.201739 265.221942,296.473088 264.871067,297.694674 C264.186652,300.088674 263.359975,302.136696 262.419726,303.783645 C260.862608,306.504073 258.948039,309.566331 255.900152,311.470986 C254.992181,312.039124 254.069865,312.452046 253.177436,312.851935 C252.642457,313.090683 252.105684,313.330616 251.586844,313.604318 C250.356093,314.260135 249.622065,315.531485 249.669885,316.919543 L249.683035,317.259004 C251.384807,317.205093 252.925787,316.914211 254.273695,316.393467 C255.429131,315.947962 256.313192,315.399374 256.901968,314.765476 C257.51824,314.099587 258.461477,313.855507 259.337767,314.137503 C260.201505,314.420683 260.81957,315.178398 260.917002,316.076518 C261.178216,318.477035 261.29358,320.549939 261.406553,322.552937 L261.535665,324.717668 C261.685101,327.061311 262.258336,329.316091 263.237438,331.419209 L263.33487,331.626559 C264.435911,330.171556 264.945785,328.362875 264.753312,326.516278 L265.920105,326.262127 L265.86571,326.139494 L264.725816,326.256202 L264.313971,322.297008 C264.198009,321.167249 264.930244,320.123392 266.040251,319.837841 C267.143683,319.551106 268.30151,320.11332 268.754598,321.154216 L271.675167,327.878862 C272.106139,328.872363 272.733768,329.743824 273.542513,330.46777 L275.207823,331.764002 C275.65613,329.335049 275.463657,326.583222 274.627416,323.542291 L273.581367,319.738314 C273.277116,318.638175 273.834212,317.483534 274.890422,317.026772 C275.944242,316.566456 277.176786,316.94561 277.788874,317.914821 L282.263572,325.015066 C282.943205,326.096247 283.965345,326.937494 285.157243,327.404327 L285.05742,326.769245 C284.756158,324.88414 284.141679,323.127 283.226535,321.544625 C282.82545,320.848523 282.39926,320.161307 281.973668,319.473498 C280.944953,317.813516 279.882167,316.097253 279.077606,314.193783 C277.589228,310.651066 277.02496,306.311534 277.357902,300.922812 C277.437402,299.656202 278.556973,298.681659 279.814025,298.768153 C281.094389,298.845169 282.068709,299.935828 281.989209,301.203623 C281.701097,305.874915 282.150001,309.543819 283.360429,312.421832 C284.023923,313.994135 284.948631,315.487053 285.927135,317.06765 C286.37843,317.794559 286.826737,318.520875 287.252927,319.257855 C288.449607,321.328389 289.25357,323.613975 289.640907,326.051815 L290.348036,330.497984 C290.477148,331.298946 290.171104,332.106425 289.541682,332.624799 C288.915846,333.142581 288.059281,333.296612 287.2864,333.027058 L283.829059,331.821467 C282.43094,331.333307 281.152967,330.559004 280.081813,329.564318 C280.025028,332.091614 279.501406,334.435258 278.513338,336.576291 C278.218651,337.217298 277.640634,337.688871 276.950242,337.854158 C276.25447,338.023592 275.527018,337.860675 274.969922,337.427018 L270.54902,333.980274 C269.76538,333.280617 269.105473,332.540675 268.554952,331.750969 C267.936887,333.260474 266.996638,334.646162 265.77306,335.819761 L264.250013,337.274764 C263.813063,337.69124 263.235047,337.919325 262.639098,337.919325" id="Fill-68" fill="#1A1919"></path>
            <path d="M151.292657,300.795454 C151.661006,305.014045 151.476831,309.209858 149.884296,313.080356 C148.847163,315.60345 147.252901,317.85613 145.924542,320.233796 C144.91043,322.049607 144.334884,324.083852 144.227257,326.168909 L144.091429,328.806478 L147.026136,328.490507 C148.451763,328.337486 149.729475,327.526241 150.488619,326.292144 L155.084352,318.825652 L152.526051,328.345078 C152.18763,329.604874 152.141011,330.926578 152.390222,332.207399 L153.073971,335.725714 L153.450953,335.666141 C156.477748,335.185468 159.074611,333.179842 160.287285,330.324423 C160.294768,330.306317 160.30225,330.288796 160.310307,330.270106 C161.520104,327.417607 162.731053,324.565693 163.94085,321.713194 C163.801568,323.081038 163.662286,324.448883 163.522428,325.815559 L163.501708,326.021729 C163.217964,328.823999 164.232651,331.600571 166.247637,333.53728 L168.013987,335.235697 C169.816021,330.823201 170.984954,326.171245 171.487405,321.421753 L172.064102,315.962641 C175.177229,318.461789 177.021853,318.920268 179.226193,319.240912 C179.99282,319.352465 180.888945,319.340784 181.599744,319.028318 C182.971845,318.424994 183.093861,315.947456 182.571265,314.525294 C182.049821,313.103133 180.789951,312.090975 179.471376,311.375515 C178.1528,310.660054 176.719692,310.163027 175.455218,309.353534 C172.984975,307.772512 171.37057,305.152465 169.930554,302.575054 C168.793276,300.539057 168.218881,299.564862 167.47988,296.96" id="Fill-69" fill="#6BB85B"></path>
            <path d="M153.090018,337.92 C152.042675,337.92 151.114257,337.170913 150.905133,336.097047 L150.222033,332.591995 C150.042783,331.66946 149.985906,330.721897 150.050252,329.7819 C149.219501,330.274889 148.284189,330.590355 147.292573,330.697451 L144.361965,331.011753 C143.719656,331.07345 143.068154,330.860422 142.592455,330.404102 C142.119053,329.949528 141.866266,329.307537 141.900162,328.647502 L142.034599,326.019004 C142.161567,323.588982 142.845816,321.199121 144.01783,319.107847 C144.45676,318.322091 144.923842,317.550305 145.392073,316.776772 C146.329684,315.22796 147.215014,313.766455 147.850429,312.223464 C149.100577,309.191611 149.495269,305.640578 149.093108,301.050019 C148.984524,299.806779 149.889962,298.710795 151.117704,298.599626 C152.372447,298.514065 153.427834,299.408663 153.535843,300.650739 C154.004074,305.998533 153.505394,310.22939 151.966839,313.963767 C151.198136,315.830373 150.178944,317.512472 149.193074,319.139277 C148.75242,319.867411 148.311191,320.595544 147.897539,321.3359 C147.067938,322.817777 146.580748,324.512099 146.4894,326.239597 L146.820321,326.202929 C147.566618,326.123771 148.22329,325.707612 148.620281,325.063292 L153.208369,317.620732 C153.792652,316.67084 154.980752,316.293678 155.992475,316.748252 C157.006497,317.197006 157.541946,318.331404 157.251241,319.412254 L154.697515,328.90069 C154.451622,329.815076 154.416577,330.788831 154.597549,331.717769 L154.821611,332.868465 C156.346952,332.189805 157.573544,330.963444 158.245154,329.38262 L161.892184,320.803333 C162.328817,319.777194 163.445677,319.228329 164.502212,319.510037 C165.56794,319.791163 166.271723,320.81963 166.158543,321.929582 L165.740295,326.01784 C165.546109,327.940322 166.06145,329.733591 167.123156,331.111282 C168.181415,327.88561 168.896688,324.552842 169.256335,321.165362 L169.832001,315.724441 C169.918178,314.906091 170.437541,314.199493 171.187285,313.880535 C171.934731,313.563322 172.794782,313.682059 173.433644,314.193091 C176.152256,316.373999 177.606931,316.717986 179.5149,316.996201 C179.927978,317.05557 180.273837,317.045093 180.499621,317.000858 C180.616823,316.644066 180.643825,315.854819 180.447915,315.321669 C180.136527,314.473635 179.157551,313.801377 178.392295,313.386964 C177.893041,313.118061 177.378274,312.882334 176.864082,312.647772 C176.006329,312.254894 175.118701,311.849211 174.244287,311.28987 C171.315402,309.418607 169.475226,306.410036 167.979186,303.737303 L167.851643,303.507979 C166.766956,301.574438 166.112007,300.406281 165.329516,297.653227 C164.988828,296.454804 165.671353,295.202251 166.854857,294.857101 C168.032041,294.504966 169.272422,295.202251 169.615408,296.40242 C170.252547,298.64095 170.715033,299.467449 171.730203,301.277597 L171.85832,301.508667 C173.143513,303.80482 174.568889,306.155684 176.623359,307.468769 C177.238092,307.859901 177.948769,308.185262 178.701385,308.530994 C179.306351,308.807464 179.910742,309.08568 180.495025,309.40231 C182.596032,310.539618 183.986936,312.001124 184.626947,313.745501 C185.476657,316.052131 185.193995,319.890692 182.453552,321.093189 C181.188467,321.650785 179.810776,321.600729 178.880634,321.468024 C177.299565,321.239282 175.770777,320.931964 173.874298,319.911646 L173.690453,321.646128 C173.166494,326.598135 171.946796,331.438389 170.066404,336.037097 C169.785465,336.723905 169.188543,337.227371 168.469823,337.381612 C167.757997,337.535853 167.006529,337.324572 166.471654,336.812376 L164.709038,335.1198 C163.634118,334.087259 162.784983,332.851003 162.193805,331.500668 C160.596075,334.912593 157.500581,337.249489 153.813335,337.832694 L153.437026,337.892062 C153.3204,337.910687 153.204922,337.92 153.090018,337.92" id="Fill-70" fill="#1A1919"></path>
            <path d="M278.972321,303.542857 C278.954488,303.542857 278.93606,303.542857 278.918226,303.541679 C277.644924,303.5134 276.635556,302.46533 276.664684,301.202815 C276.750284,297.600847 277.901725,291.641163 277.94928,291.390191 C277.964736,291.210505 281.905909,256.063332 275.418726,233.883008 C269.38451,213.248573 253.394521,213.030594 253.194787,213.030594 C253.192409,213.030594 253.190032,213.030594 253.187654,213.030594 C251.916729,213.030594 250.884772,212.010802 250.880016,210.750643 C250.875261,209.487539 251.905435,208.460678 253.18052,208.457143 C253.421865,208.457143 272.859044,208.705168 279.853289,232.609889 C286.597868,255.677449 282.678689,290.606053 282.507488,292.082424 C282.471821,292.312187 281.354264,298.091007 281.279958,301.309448 C281.250236,302.5537 280.22244,303.542857 278.972321,303.542857" id="Fill-71" fill="#1A1919"></path>
            <path d="M209.961585,135.016639 C183.072773,140.225969 170.790207,159.344375 162.826697,182.623272 C170.260622,182.125739 177.593618,180.62132 184.492156,178.17856 C174.979911,184.373503 167.105728,192.509536 161.645714,201.783041 C169.55064,202.516932 177.530972,202.527568 185.418496,201.813177 C178.716595,210.056161 173.00774,218.934949 168.417222,228.253953 C178.243274,228.825939 186.663864,222.835446 195.441766,218.996993 C196.697575,218.44746 198.124498,217.928064 199.471955,218.300327 C200.628576,218.619411 201.442386,219.519344 202.18079,220.370823 C208.671553,227.858644 215.161736,235.346465 221.653079,242.834286 C227.262746,236.127037 231.35036,228.421176 233.607916,220.296371 C233.960587,219.02831 234.45595,217.554618 235.84749,217.122083 C237.201908,216.700775 238.627092,217.512074 239.808654,218.254828 C248.460104,223.698744 258.272236,227.681967 268.551887,229.924413 C266.929486,220.861266 256.957261,213.439626 258.040795,204.341616 C258.129543,203.597088 258.337201,202.794653 258.999039,202.332573 C259.651595,201.876402 260.562274,201.87522 261.398127,201.895311 C266.181802,202.005808 270.964896,202.116897 275.748571,202.227985 C266.760692,194.743118 257.772812,187.258843 248.784353,179.773977 C256.214217,178.940224 263.643501,178.106471 271.073366,177.272127 C262.212517,166.68979 253.171853,156.223858 243.955434,145.879651 C241.37131,142.978948 238.655514,140.000838 234.946672,138.31206 C227.790592,135.054456 217.187272,133.853757 209.961585,135.016639" id="Fill-72" fill="#6BB85B"></path>
            <path d="M195.599024,215.259506 C196.168675,215.259506 196.749348,215.340286 197.333502,215.533455 C199.115548,216.125839 200.179438,217.527776 200.883671,218.456742 L216.567066,239.11468 C221.026241,233.433176 224.45053,226.945047 226.534805,220.198773 C226.921727,218.953713 227.722255,216.365837 230.312371,215.625356 C232.735999,214.942827 234.80113,216.423787 235.914909,217.222218 C242.534351,221.982365 250.120807,225.78779 258.047778,228.344057 C257.222886,226.071104 255.987288,223.806347 254.702962,221.455541 C252.00727,216.519201 249.218762,211.416618 250.124868,205.59697 C250.219423,204.998146 250.503088,203.174165 252.082102,202.106468 C253.376869,201.230185 254.861327,201.323257 255.75177,201.378866 L263.019176,201.829593 L243.112703,182.964613 C242.463579,182.348814 242.235023,181.404629 242.52971,180.555857 C242.824977,179.70767 243.587219,179.114701 244.475922,179.042701 L261.510354,177.680569 C254.395513,168.035593 247.08576,158.403495 239.743523,148.999102 C237.702756,146.387226 235.389925,143.427061 232.300349,141.800931 C226.422847,138.705548 216.96327,137.022638 210.282918,137.890141 C190.075958,141.230205 176.984418,153.478862 166.971433,178.622998 C172.615158,178.16993 178.157366,177.053063 183.490742,175.296398 C184.574936,174.941084 185.748464,175.453274 186.230521,176.495215 C186.712578,177.537156 186.34712,178.776363 185.380685,179.384552 C177.527385,184.324404 170.744938,190.778583 165.594292,198.186313 C171.689329,198.819672 177.849917,198.963671 183.954816,198.610113 C184.847579,198.562114 185.695095,199.052646 186.09768,199.86454 C186.499104,200.67819 186.382506,201.653985 185.801252,202.347051 C180.076314,209.165324 175.026604,216.499299 170.753639,224.193855 C175.804509,223.741957 180.653507,221.416907 185.731641,218.982395 C187.756746,218.011869 189.851462,217.007391 191.952559,216.136961 C193.054155,215.680965 194.297295,215.259506 195.599024,215.259506 Z M216.496875,245.028571 C216.472511,245.028571 216.450467,245.028571 216.426684,245.027401 C215.751455,245.006328 215.120314,244.679697 214.709028,244.138239 L197.307978,221.220227 C196.918735,220.705695 196.38563,220.002678 195.927936,219.850484 C195.319999,219.654974 194.161553,220.133798 193.662673,220.341601 C191.674114,221.164617 189.635667,222.142168 187.664511,223.087525 C181.130343,226.220957 174.37516,229.470875 166.762599,228.705809 C166.01718,228.632639 165.356454,228.188937 165.001437,227.523968 C164.64526,226.859584 164.640619,226.058226 164.988095,225.389745 C169.001178,217.666506 173.766642,210.26463 179.189932,203.328115 C173.238758,203.422358 167.286423,203.058849 161.40254,202.261003 C160.646098,202.15798 159.992333,201.675058 159.666901,200.979065 C159.340309,200.281901 159.387876,199.465324 159.789881,198.810307 C163.536702,192.716124 168.291724,187.14818 173.807829,182.351741 C170.472294,182.91076 167.090352,183.247927 163.681145,183.359731 C162.912522,183.381389 162.21583,183.029003 161.77902,182.412033 C161.34047,181.796235 161.235473,180.99956 161.500575,180.289518 C168.687928,160.962103 180.650026,138.165261 209.594348,133.398675 C209.618132,133.394577 209.643656,133.39165 209.66802,133.388138 C217.27942,132.393026 227.669467,134.23691 234.385204,137.771313 C238.329836,139.849341 241.074256,143.363257 243.27977,146.186448 C251.485766,156.697171 259.652316,167.491208 267.551442,178.269441 C268.039301,178.933824 268.129795,179.811279 267.791021,180.562881 C267.452827,181.313898 266.735252,181.82082 265.919641,181.885795 L249.905013,183.167733 L270.649139,202.827046 C271.34235,203.48265 271.551184,204.505273 271.175284,205.383899 C270.796483,206.261939 269.897339,206.816274 268.96977,206.7513 L255.474486,205.914235 C255.303358,205.903698 254.905414,205.879113 254.658875,205.900186 C254.635091,205.983307 254.603766,206.110916 254.575342,206.302328 C253.907074,210.584236 256.209464,214.799999 258.648175,219.262198 C260.719107,223.056501 262.86139,226.979583 263.41944,231.349295 C263.514575,232.100897 263.23265,232.850743 262.667639,233.348299 C262.102629,233.847026 261.325884,234.026731 260.604828,233.834148 C250.82446,231.198857 241.384026,226.734317 233.30275,220.924034 C232.010303,219.995654 231.636143,219.972239 231.537527,219.999166 C231.438911,220.059458 231.209774,220.345113 230.833874,221.553296 C228.298868,229.760628 223.926706,237.610305 218.194807,244.248872 C217.765538,244.744672 217.147739,245.028571 216.496875,245.028571 L216.496875,245.028571 Z" id="Fill-73" fill="#1A1919"></path>
            <path d="M267.568982,264.045714 C265.687651,264.045714 264.092872,263.885485 263.079661,263.782315 C262.727214,263.747733 262.449729,263.714881 262.257485,263.704506 C261.129412,263.835917 260.075697,263.165604 259.752268,262.110279 C259.388334,260.923543 260.100483,259.680323 261.345233,259.333928 C261.940706,259.166782 262.454566,259.218078 263.572362,259.332775 C266.75527,259.656692 275.186198,260.503373 278.701604,254.895914 C279.368412,253.83252 280.809638,253.490159 281.921389,254.123008 C283.032535,254.758163 283.394655,256.131642 282.730264,257.192154 C279.093346,262.990389 272.387778,264.045714 267.568982,264.045714" id="Fill-74" fill="#1A1919"></path>
            <path d="M257.771267,303.542857 C256.614754,303.542857 255.652204,302.582967 255.605809,301.356375 L253.809273,255.349195 C253.75617,253.769547 254.298932,252.288002 255.334708,251.162451 C256.368806,250.036901 257.75897,249.417143 259.248072,249.417143 C262.138517,249.417143 264.525887,251.792196 264.683517,254.825191 L266.210629,284.72043 C266.225721,285.060562 266.581786,292.969377 264.341985,298.900842 C263.899279,300.072213 262.636561,300.639101 261.523647,300.179129 C260.411293,299.71387 259.866854,298.388587 260.307883,297.217802 C262.195532,292.221556 261.879713,285.030602 261.8758,284.957759 L260.350365,255.071919 C260.318503,254.459798 259.835551,253.977503 259.248072,253.977503 C258.841699,253.977503 258.576746,254.198971 258.453772,254.331734 C258.333034,254.464498 258.131804,254.74941 258.144102,255.17766 L259.941197,301.168979 C259.989828,302.427293 259.059698,303.489399 257.862939,303.541095 C257.832754,303.54227 257.800893,303.542857 257.771267,303.542857" id="Fill-75" fill="#1A1919"></path>
            <path d="M157.945743,303.542857 C155.726179,303.542857 153.289975,303.11125 150.674286,302.046829 L152.484005,298.352107 C161.457146,302.002521 166.605642,295.763509 166.821139,295.497143 L170.422857,297.861076 C168.57484,300.216148 164.105418,303.542857 157.945743,303.542857" id="Fill-76" fill="#1A1919"></path>
            <path d="M274.330047,303.542857 C268.170194,303.542857 263.699499,300.217191 261.851429,297.861076 L265.454966,295.497143 C265.667611,295.764551 270.819685,302.001479 279.793087,298.352107 L281.6,302.046829 C278.986521,303.11125 276.549103,303.542857 274.330047,303.542857" id="Fill-77" fill="#1A1919"></path>
            <path d="M150.286547,303.542857 C149.378305,303.542857 148.586688,302.755241 148.45864,301.669684 L147.766034,295.770668 C147.627037,294.582816 148.332971,293.488314 149.343556,293.323971 C150.347001,293.157952 151.287135,293.989169 151.426608,295.177021 L152.11969,301.076037 C152.258687,302.263889 151.552277,303.358391 150.541692,303.522734 C150.456009,303.536708 150.371754,303.542857 150.286547,303.542857" id="Fill-78" fill="#1A1919"></path>
            <path d="M169.424535,303.542857 C168.548809,303.542857 167.701005,303.112552 167.256161,302.355729 C165.654471,299.635129 164.53443,294.990985 163.877636,291.572451 C163.642205,290.341593 164.535699,289.167292 165.875941,288.949807 C167.206664,288.72999 168.491696,289.553283 168.729665,290.785891 C169.555894,295.087774 170.598515,298.519718 171.588467,300.203038 C172.235742,301.302706 171.790899,302.675251 170.594073,303.269981 C170.222207,303.455397 169.820515,303.542857 169.424535,303.542857" id="Fill-79" fill="#1A1919"></path>
        </g>
    </g>
</svg>