<?xml version="1.0" encoding="UTF-8"?>
<svg width="700px" height="700px" viewBox="0 0 700 700" version="1.1" xmlns="http://www.w3.org/2000/svg" xmlns:xlink="http://www.w3.org/1999/xlink">
    <!-- Generator: Sketch 53.2 (72643) - https://sketchapp.com -->
    <title>safari-pinned-tab</title>
    <desc>Created with Sketch.</desc>
    <defs>
        <polygon id="path-1" points="0.659716578 0.550455285 150.896642 0.550455285 150.896642 96.9526829 0.659716578 96.9526829"></polygon>
    </defs>
    <g id="safari-pinned-tab" stroke="none" stroke-width="1" fill="none" fill-rule="evenodd">
        <circle id="Oval" fill="#FFFFFF" cx="350" cy="350" r="350"></circle>
        <g id="Group" transform="translate(56.000000, 56.000000)">
            <polyline id="Fill-1" fill="#688496" points="129.870513 212.415567 166.451983 160.424462 229.273894 122.414198 287.501119 110 346.609211 121.711478 367.13437 124.577136 403.840085 152.074772 422.597935 166.015703 446.515945 192.793403 456 214.621545 436.628092 225.265639 408.728659 195.300658 357.385895 227.1273 233.839111 230 205.315265 213.672325 188.618613 220.942112 166.373135 192.22841 129 225.346241 129.870513 212.415567"></polyline>
            <polyline id="Fill-2" fill="#F4B628" points="337.039916 117 327.41314 127.07129 321 156.009971 332.974387 176.471349 360.700538 188 381.508695 174.528201 392.734045 158.746517 395 143.113446 337.039916 117"></polyline>
            <polyline id="Fill-3" fill="#F6F3EB" points="241.455695 120 237.229678 126.260983 240.921169 128.499603 243.576271 130.702456 258.711864 131.739732 275.838983 132.517301 283.40678 133.5538 285 141.070557 272.387271 145.606115 238.398305 145.606115 234.318068 148.327605 232.955068 153.770586 241.71778 156.880861 246.099136 159.732205 247.161017 167.119108 234.318068 170 196.045729 170 191 165.563971 191 160.898558 198.169492 155.973438 210.451627 153.770586 210.451627 150.141673 203.082186 145.000389 192.864864 144.215044 211.048288 133.5538 241.455695 120"></polyline>
            <polyline id="Fill-4" fill="#182E3A" points="130.706598 223.035043 168.079029 188.94816 193.976395 215.543543 207.238972 214.833814 228.590881 231.416686 359.742227 228.499086 412.786941 188 436.477473 229.790587 458.636878 215.797869 473.366684 253.702827 478 290.501464 475.141418 331.12374 465.630381 358.718943 452.58745 386.360243 437.926333 411.217464 418.977741 428.119834 398.118636 445.164467 380.430408 458 213.868263 455.068889 180.98538 435.635972 148.941941 401.547499 130.706598 370.464846 118.990324 338.674053 113 286.069033 124.478259 237.336132 130.706598 223.035043"></polyline>
            <polyline id="Fill-5" fill="#61625E" points="472.113056 278.749112 461.850632 284.652081 443.869203 300.337455 435.964698 317.191449 428.059394 342.395809 421.918731 359.76786 431.328018 392.776591 435.63128 412.013325 400.144963 446.21223 359.662961 459 327.744305 396.219391 333.952132 326.253045 251.010802 346.761372 245.726473 409.35679 226.528905 446.660839 207.977386 455.076661 171.342893 429.773319 159 421.295235 196.448451 389.823111 228.749298 334.010321 324.249404 293.841395 371.710014 274.555171 435.964698 255.205087 470.635458 247 474.224708 264.281051 477 278.796208 472.113056 278.749112"></polyline>
            <polyline id="Fill-6" fill="#B35447" points="476 274 459.709669 284.451332 441.828312 300.029627 433.967798 316.768564 426.106489 341.800863 420 359.054321 429.356922 391.837713 430.558342 409 448.231379 386.14787 461.215618 358.575476 470.683856 331.049065 474.774727 304.32337 476 274"></polyline>
            <polyline id="Fill-7" fill="#B35447" points="364 277 245.755599 299.424513 225.857267 303.744833 221.474213 300.215659 173.624944 307.053185 148.85168 315.449966 128.084391 326.017631 117 331.686709 120.365816 345.620711 140.922642 384.351073 150.611917 400.88807 163.614393 415 207.89695 382.487593 245.755599 353.998429 364 277"></polyline>
            <polyline id="Fill-8" fill="#C6D1CC" points="188.833552 261 136 346 218 343.163334 170.801177 263.531966 181.420951 278.822929"></polyline>
            <path d="M6,363.42239 L18.1958001,359.153758 L27.6501074,386.552346 C30.683044,395.337956 36.8946392,397.188449 42.1486334,395.350051 C47.1191906,393.609216 50.9600029,389.196254 47.666048,379.65432 L45.3184846,372.852246 C41.0485133,360.474502 45.7732649,349.184477 57.0306802,345.244015 C68.4762529,341.239048 79.2292463,347.112247 83.6321287,359.86654 L94,389.90823 L81.8025985,394.176862 L72.3154638,366.685547 C70.3594279,361.016345 66.2247698,359.393233 62.0973178,360.837344 C58.3429778,362.150831 56.0995014,366.00663 58.0555374,371.676638 L60.2725916,378.099745 C66.0438185,394.821914 59.0908032,406.361897 47.1760381,410.531352 C35.074717,414.767732 22.1070714,410.093523 16.2709903,393.183482 L6,363.42239" id="Fill-9" fill="#0A0B09"></path>
            <path d="M53.0415918,462.878069 C42.817314,448.390593 45.6515298,432.525958 60.9248041,421.94584 L98.3754578,396 L107.121084,408.396795 L68.9414948,434.847883 C61.4675093,440.02628 59.3022835,447.755469 64.4144224,454.999999 C69.5273606,462.243737 77.5416534,462.80442 85.0140403,457.626814 L123.195228,431.174934 L132,443.650921 L94.5501456,469.595969 C79.2776706,480.17688 63.3210193,477.447906 53.0415918,462.878069" id="Fill-10" fill="#0A0B09"></path>
            <polyline id="Fill-11" fill="#0A0B09" points="88 505.052169 133.837905 447 150.708834 459.842834 138.574182 515.172129 141.726875 517.571227 173.569879 477.245376 185 485.947041 139.162095 544 121.975897 530.917098 134.425818 475.827081 131.273929 473.426404 99.430925 513.753835 88 505.052169"></polyline>
            <g id="Group-15" transform="translate(165.000000, 491.000000)">
                <mask id="mask-2" fill="white">
                    <use xlink:href="#path-1"></use>
                </mask>
                <g id="Clip-13"></g>
                <polyline id="Fill-12" fill="#0A0B09" mask="url(#mask-2)" points="0.659716578 69.6972602 25.7555936 0.550455285 45.9564866 7.54470732 52.1240695 63.7471382 55.899877 65.0546667 73.3343209 17.0207398 87.0228342 21.7595447 61.9269572 90.9063496 41.3465455 83.7819756 35.5576738 27.7096667 31.7802513 26.4021382 14.3482299 74.436065 0.659716578 69.6972602"></polyline>
                <polyline id="Fill-14" fill="#0A0B09" mask="url(#mask-2)" points="125.988102 70.3257886 124.728422 97 109.221449 96.3012846 110.481936 69.6302276 99.177123 69.1207805 89.8708396 21.9984959 106.178032 22.7319106 112.211572 58.447626 125.217759 59.0319919 134.589449 24.0110488 150.896642 24.7460407 137.292107 70.8352358 125.988102 70.3257886"></polyline>
            </g>
            <path d="M356.919888,518.884685 L364.716084,541.609061 L377.838716,537.317872 C387.129638,534.280798 388.845925,527.790732 386.76064,521.712607 C384.739706,515.820572 379.43119,511.524611 370.235572,514.530671 L356.919888,518.884685 Z M383.411151,547.351589 L368.372663,552.269438 L376.90604,577.145771 L362.058974,582 L338,511.861799 L368.556755,501.871026 C384.840712,496.546802 397.371971,502.953366 401.991366,516.420194 C405.037837,525.304769 403.165153,533.820346 396.561479,540.036845 L418,563.709163 L402.386429,568.813897 L383.411151,547.351589 L383.411151,547.351589 Z" id="Fill-16" fill="#0A0B09"></path>
            <path d="M463.662722,517.711898 C474.995214,509.197848 476.62073,494.879282 468.268216,483.65326 C459.79757,472.265413 445.672007,469.782759 434.341134,478.299248 C423.011069,486.813298 421.303023,501.191226 429.776096,512.580699 C438.126992,523.806721 452.332658,526.22676 463.662722,517.711898 Z M472.437595,529.503897 C453.95251,543.393914 430.37727,539.830537 417.038168,521.899802 C403.758941,504.049572 407.144286,480.475332 425.627753,466.586941 C444.192132,452.636748 467.56752,456.100917 480.845938,473.950333 C494.186658,491.880255 491.001165,515.553704 472.437595,529.503897 L472.437595,529.503897 Z" id="Fill-17" fill="#0A0B09"></path>
            <path d="M503.252947,455.829254 L514.159107,441.05223 L486.068073,428.854286 L482.707223,433.408832 L503.252947,455.829254 Z M525.534165,445.981351 L511.563559,464.910512 L524.761575,479.301032 L515.389259,492 L465,434.204108 L481.387989,412 L553,441.042686 L543.566946,453.821977 L525.534165,445.981351 L525.534165,445.981351 Z" id="Fill-18" fill="#0A0B09"></path>
            <path d="M511.556608,384.664765 L555.212367,399.623317 L558.133737,391.129542 C563.688677,374.973897 556.388011,364.938303 544.17897,360.755166 C531.969141,356.572816 520.032918,360.016132 514.44565,376.264648 L511.556608,384.664765 Z M563.365395,418 L494,394.232068 L501.776128,371.614007 C509.841633,348.165615 528.691371,339.349939 549.039247,346.321572 C569.663885,353.389224 579.177854,372.024844 571.177794,395.289068 L563.365395,418 L563.365395,418 Z" id="Fill-19" fill="#0A0B09"></path>
            <path d="M191.220492,103.674869 C170.867642,114.842548 147.898102,107.877081 137.098947,88.0928604 C126.351244,68.3979091 132.981989,45.418828 153.334839,34.2511485 C170.396409,24.887693 190.015867,28.2496264 202.067015,42.7129015 L188.028032,50.4187314 C180.431137,43.6997785 170.249404,41.758784 160.385365,47.1739128 C147.94547,54.0009718 144.293211,68.0490215 151.148547,80.6138894 C157.909146,93.0010375 171.675353,97.4907133 184.118514,90.6628353 C194.159776,85.1527042 198.140347,75.0939305 196.131278,64.8476091 L209.993854,57.2400575 C215.887941,75.6614871 208.547488,94.1639962 191.220492,103.674869" id="Fill-20" fill="#0A0B09"></path>
            <path d="M243.649106,49.0263921 L261.626703,45.9106259 L250.333727,18.1701284 L244.792245,19.128765 L243.649106,49.0263921 Z M266.208011,57.1357477 L243.177372,61.1265164 L242.449485,80.3229185 L227,83 L231.761888,7.67956684 L258.776412,3 L289,72.257747 L273.451076,74.9521865 L266.208011,57.1357477 L266.208011,57.1357477 Z" id="Fill-21" fill="#0A0B09"></path>
            <polyline id="Fill-22" fill="#0A0B09" points="294 72.7458069 307.85611 0 334.63737 5.09746874 339.003889 46.0340516 342.11134 46.6239664 361.221926 10.1575205 388 15.2541931 374.143093 88 359.106756 85.1379978 369.747109 29.2696448 365.769221 28.5133438 345.863058 67.0385207 327.911992 63.6200402 323.561401 20.4782428 319.683856 19.7402522 309.039522 75.6086052 294 72.7458069"></polyline>
            <path d="M427.988428,47.4985512 L414.804849,68.8195992 L425.804006,75.156172 C434.44825,80.1349077 441.01463,77.1755193 444.553967,71.4450673 C447.994943,65.883158 447.717894,58.8652929 439.162175,53.9364078 L427.988428,47.4985512 Z M408.18765,79.5216655 L395.52866,100 L382,92.2035151 L421.073688,29 L446.998224,43.9377898 C462.10229,52.6387081 465.863758,66.464749 457.998201,79.1893277 C450.079365,91.9993647 435.687592,95.3646799 420.673689,86.7151948 L408.18765,79.5216655 L408.18765,79.5216655 Z" id="Fill-23" fill="#0A0B09"></path>
            <path d="M351.211435,420 C349.474236,420 347.906951,418.88163 347.519334,417.238612 C346.69454,413.761797 346.184797,410.208505 346.004263,406.681527 C345.906031,404.742471 347.517564,403.093697 349.605212,403.001596 C351.657461,402.944855 353.466342,404.407782 353.566344,406.347661 C353.727409,409.478275 354.17963,412.635204 354.910616,415.72799 C355.360182,417.623463 354.069893,419.500023 352.029149,419.917767 C351.754808,419.974508 351.481351,420 351.211435,420" id="Fill-24" fill="#1A1919"></path>
            <path d="M378.952376,458 L376.396398,451.690282 L380.100056,450.192062 C437.519909,418.955536 473.18326,359.041079 473.18326,293.784936 C473.18326,195.64916 393.25135,115.809655 295.001195,115.809655 C196.749447,115.809655 116.817537,195.64916 116.817537,293.784936 C116.817537,360.161161 153.396641,420.580332 212.282177,451.464992 L209.114102,457.493694 C147.977839,425.42845 110,362.700652 110,293.784936 C110,191.894058 192.991593,109 295.001195,109 C397.010001,109 480,191.894058 480,293.784936 C480,361.602859 442.902049,423.86336 383.185242,456.268529 L382.835359,456.430929 L378.952376,458" id="Fill-25" fill="#1A1919"></path>
            <path d="M349.425739,239 C348.35829,239 347.308445,238.501208 346.640289,237.562353 C345.539232,236.016903 345.893715,233.868075 347.430874,232.762688 L407.342462,189.642933 C408.102639,189.095067 409.05086,188.885896 409.970275,189.059668 C410.88889,189.234246 411.696278,189.778894 412.204397,190.568112 L436.442056,228.140818 L455.905,217.197967 C457.559786,216.275202 459.640272,216.867316 460.563687,218.521375 C461.487103,220.181869 460.896565,222.27599 459.24738,223.205192 L436.985382,235.720846 C435.409815,236.604994 433.423751,236.110225 432.443522,234.58891 L408.411511,197.334787 L351.414204,238.356398 C350.810863,238.791634 350.1139,239 349.425739,239" id="Fill-26" fill="#1A1919"></path>
            <path d="M356.005106,189 C337.363406,189.001591 320.459274,176.304787 316.077198,157.573741 C312.254227,141.234281 318.793202,124.524193 332.734712,115 L336.637211,120.600782 C325.031736,128.526343 319.588482,142.43763 322.770408,156.038735 C327.015921,174.182025 345.376461,185.525161 363.704869,181.32179 C380.312578,177.512113 391.60476,161.992648 389.971623,145.22291 L389.941097,144.902388 L390.144335,142.730315 L396.985355,143.354657 L396.842366,144.896025 C398.625722,164.924271 385.100328,183.397627 365.255264,187.948561 C362.15849,188.659595 359.056895,189 356.005106,189" id="Fill-27" fill="#1A1919"></path>
            <path d="M335.826222,115.822415 C322.259342,125.214013 315.915639,141.543358 319.659189,157.511124 C323.925002,175.703507 340.101604,188.409185 358.995568,188.409185 C358.99796,188.409185 358.997163,188.409185 358.999555,188.409185 C362.051007,188.409185 365.117608,188.061785 368.113246,187.375652 C387.610803,182.913815 400.990307,164.716707 399.235343,145.047287 L399.350959,143.761673 L393.155563,143.197641 L392.980943,145.054376 L393.011242,145.317486 C394.647401,162.073793 383.339408,177.580723 366.709913,181.387149 C348.358145,185.5843 329.972091,174.25404 325.72063,156.124678 C322.556752,142.629671 327.907757,128.831378 339.36007,120.883732 L335.826222,115.822415 Z M358.995568,189 C339.82014,189 323.405131,176.106836 319.077125,157.645042 C315.254637,141.342481 321.792096,124.669676 335.732135,115.167792 L335.978516,115 L340.190907,121.033405 L339.944526,121.201197 C328.527296,128.982627 323.172305,142.638336 326.302695,155.99076 C330.479205,173.802657 348.544724,184.938342 366.574363,180.812089 C382.913624,177.071835 394.023077,161.83668 392.416421,145.374204 L392.386121,145.055164 L392.61496,142.554046 L400,143.227576 L399.830962,145.048074 C401.612238,164.956972 388.034195,183.423492 368.248795,187.950712 C365.208506,188.647086 362.096456,189 358.999555,189 C358.998758,189 358.997163,189 358.995568,189 L358.995568,189 Z" id="Fill-28" fill="#1A1919"></path>
            <path d="M208,324 L167,265" id="Fill-29" fill="#0A0B09"></path>
            <path d="M208.621653,327 C207.561465,327 206.51867,326.492364 205.859314,325.54176 L165.623554,267.45626 C164.54281,265.897786 164.902531,263.738717 166.426798,262.636953 C167.954228,261.531148 170.062746,261.902983 171.140327,263.459032 L211.377668,321.544532 C212.45683,323.103006 212.097109,325.262075 210.572842,326.363839 C209.979105,326.793874 209.296821,327 208.621653,327" id="Fill-30" fill="#0A0B09"></path>
            <path d="M206.544702,346 L133.455775,346 C132.160442,346 130.974199,345.294474 130.381885,344.172082 C129.789571,343.050477 129.892196,341.700775 130.648547,340.675127 L188.326813,262.402645 C189.437098,260.894849 191.593831,260.547198 193.149362,261.63105 C194.700044,262.714115 195.054785,264.816535 193.942884,266.325118 L140.18698,339.272727 L206.544702,339.272727 C208.45255,339.272727 210,340.778951 210,342.636757 C210,344.493777 208.45255,346 206.544702,346" id="Fill-31" fill="#0A0B09"></path>
            <path d="M178.999649,347 C177.343388,347 176,345.502737 176,343.656763 L176,323.344019 C176,321.497263 177.343388,320 178.999649,320 C180.656612,320 182,321.497263 182,323.344019 L182,343.656763 C182,345.502737 180.656612,347 178.999649,347" id="Fill-32" fill="#0A0B09"></path>
            <path d="M232.581067,239 C231.762942,239 230.944019,238.708136 230.290478,238.117212 L206.261272,216.360174 L194.143605,224.549949 C192.64877,225.564675 190.613846,225.231231 189.512094,223.788704 L167.196635,194.448007 L129.705928,228.289002 C128.300576,229.553212 126.141815,229.438865 124.879474,228.039519 C123.616335,226.636974 123.72659,224.474784 125.127948,223.208975 L165.376628,186.879542 C166.085296,186.239841 167.03285,185.927187 167.982002,186.014346 C168.935149,186.103105 169.805205,186.586879 170.384444,187.347324 L192.994715,217.07424 L204.656982,209.193121 C205.957672,208.314331 207.694588,208.435075 208.861054,209.489782 L234.874851,233.044381 C236.27461,234.31179 236.383268,236.47398 235.116933,237.874925 C234.441021,238.621777 233.513441,239 232.581067,239" id="Fill-33" fill="#1A1919"></path>
            <path d="M433.525105,412 C432.259455,412 431.047427,411.284977 430.472562,410.065651 C430.04989,409.170689 420.126559,387.813929 420.001177,360.345541 C419.882892,334.789405 428.62416,299.142454 470.929215,274.459181 C472.537892,273.521602 474.60315,274.065366 475.539968,275.675351 C476.478363,277.285335 475.935829,279.352271 474.324786,280.289851 C442.67012,298.761266 426.660628,325.608547 426.745004,360.083524 C426.808878,386.102926 436.475135,406.979058 436.574495,407.18662 C437.366216,408.873158 436.643889,410.882481 434.958721,411.677214 C434.494255,411.897403 434.005343,412 433.525105,412" id="Fill-34" fill="#1A1919"></path>
            <path d="M457.831021,270.094491 C456.429083,270.055453 455.149746,269.127297 454.727811,267.709966 C454.203179,265.942087 455.208657,264.08418 456.972822,263.556764 C463.121125,261.725946 466.955158,261.075041 467.11597,261.04875 C468.929493,260.73485 470.649076,261.970533 470.953187,263.785417 C471.258891,265.602692 470.03528,267.323566 468.219369,267.631092 C468.183545,267.635873 464.589935,268.253316 458.8771,269.957459 C458.527611,270.05864 458.175733,270.104849 457.831021,270.094491 Z M431.082755,281.907175 C429.953084,281.875307 428.868792,281.270611 428.271715,280.214983 C427.363361,278.60963 427.927798,276.572466 429.53115,275.666617 C432.474343,273.998326 435.533767,272.408907 438.625035,270.938198 C440.28889,270.147074 442.277556,270.856934 443.068882,272.519649 C443.858616,274.183957 443.152473,276.175709 441.487821,276.966833 C438.539852,278.369823 435.62293,279.886742 432.816667,281.475363 C432.268152,281.78528 431.668686,281.923906 431.082755,281.907175 Z M407.267332,300.061598 C406.417094,300.0369 405.574817,299.690335 404.944304,299.023497 C403.675315,297.685836 403.728654,295.575375 405.064515,294.305434 C407.513328,291.975881 410.114993,289.69891 412.797064,287.53507 C414.233234,286.374277 416.331761,286.604524 417.486907,288.037788 C418.643645,289.473443 418.418347,291.574344 416.98377,292.730357 C414.441813,294.781861 411.977874,296.940124 409.658826,299.143799 C408.988507,299.781956 408.123143,300.085499 407.267332,300.061598 Z M386.23827,322.998616 C385.680202,322.982682 385.11895,322.826529 384.606259,322.516612 C383.031567,321.561368 382.529226,319.509066 383.482958,317.931599 C385.191395,315.112074 387.038354,312.329198 388.974477,309.661047 C390.056381,308.167233 392.142967,307.838195 393.632475,308.919318 C395.12278,310.002035 395.454755,312.089391 394.373647,313.580018 C392.545795,316.10078 390.799941,318.73069 389.188628,321.393264 C388.542193,322.457656 387.398989,323.032078 386.23827,322.998616 L386.23827,322.998616 Z" id="Fill-35" fill="#FFFFFE"></path>
            <path d="M458.312705,271.069257 C458.492185,271.074642 458.678495,271.050241 458.858566,270.998207 C461.389836,270.243767 463.701608,269.641211 465.746379,269.176278 C467.009634,268.889043 468.16451,268.661088 468.370701,268.634585 C469.318429,268.474222 469.95662,267.577297 469.797007,266.629266 C469.638141,265.681984 468.741323,265.041425 467.790851,265.205731 C467.338801,265.279574 466.361715,265.470133 465.064151,265.763141 C462.937565,266.243354 460.523339,266.870495 457.866872,267.660857 C456.945604,267.936046 456.420962,268.905442 456.694419,269.826149 C456.910624,270.551792 457.56837,271.048548 458.312705,271.069257 Z M453.648352,270.732115 C452.875351,268.129501 454.356327,265.393062 456.958876,264.615662 C459.686706,263.804067 462.16962,263.159083 464.364083,262.663542 C465.723217,262.356631 466.762861,262.153871 467.263853,262.072104 C469.940488,261.609201 472.481866,263.4244 472.931043,266.102739 C473.38173,268.779614 471.577906,271.314737 468.845831,271.776034 C467.838081,271.910388 463.979573,272.787722 459.754046,274.047078 C459.248919,274.193195 458.733506,274.260787 458.222568,274.245637 C456.116141,274.186286 454.259629,272.783735 453.648352,270.732115 Z M431.619168,282.848059 C431.931646,282.856973 432.241795,282.781216 432.522448,282.622779 C435.358036,281.018916 438.30249,279.489185 441.276758,278.074879 C442.144193,277.66298 442.513127,276.625237 442.101677,275.758868 C441.688455,274.891352 440.650412,274.521906 439.783644,274.933685 C436.721237,276.38943 433.702361,277.957448 430.807099,279.597179 C429.972019,280.068577 429.677964,281.129434 430.151869,281.966266 C430.456037,282.503578 431.011679,282.830936 431.619168,282.848059 Z M427.38635,283.5318 C426.04726,281.167202 426.879346,278.165298 429.242816,276.831136 C432.202553,275.154887 435.288727,273.551913 438.419501,272.06367 C440.871593,270.898745 443.80376,271.942322 444.971621,274.394126 C446.136429,276.846796 445.093533,279.78027 442.640816,280.944934 C439.735001,282.326691 436.857211,283.821787 434.086005,285.389234 C433.297742,285.834233 432.415782,286.049688 431.529348,286.024447 C429.820569,285.976189 428.244392,285.047527 427.38635,283.5318 Z M409.099708,300.471249 C411.449886,298.239885 413.941491,296.059941 416.507392,293.990867 C417.25509,293.388866 417.3725,292.29482 416.769252,291.546749 C416.165524,290.798299 415.071715,290.680296 414.323003,291.284934 C411.674557,293.419836 409.111183,295.662103 406.703204,297.950871 C406.006523,298.612612 405.978568,299.7116 406.643039,300.411439 C406.961759,300.748236 407.392964,300.936834 407.852401,300.950395 C408.313594,300.963035 408.757812,300.796465 409.099708,300.471249 Z M407.76286,304.126792 L407.761084,304.126742 C406.470329,304.08928 405.239005,303.551092 404.336489,302.597386 C402.466024,300.627368 402.545128,297.517564 404.514064,295.647373 C406.984727,293.299024 409.613165,290.999843 412.327338,288.81196 C414.442268,287.104002 417.53778,287.437953 419.243032,289.551979 C420.948412,291.666774 420.616192,294.762477 418.501441,296.465144 C416.002935,298.479873 413.575824,300.603391 411.28904,302.774565 C410.328437,303.688304 409.061454,304.163029 407.76286,304.126792 Z M386.866015,323.821594 L386.866452,323.821607 C387.489657,323.839557 388.077032,323.527052 388.405926,322.985972 C390.034544,320.297082 391.800933,317.637813 393.653646,315.08493 C394.216974,314.308875 394.043807,313.220911 393.267016,312.657044 C392.489397,312.093107 391.401314,312.265704 390.837096,313.044074 C388.934406,315.663932 387.11512,318.401872 385.430467,321.179789 C384.9324,322.002891 385.194681,323.072849 386.01355,323.569175 C386.277677,323.728702 386.567958,323.813091 386.866015,323.821594 Z M384.368312,326.287855 C382.046666,324.880684 381.3057,321.857965 382.712265,319.533484 C384.443224,316.679211 386.311184,313.868018 388.264786,311.17806 C389.859024,308.978717 392.93497,308.490795 395.133425,310.085138 C397.33066,311.680092 397.820057,314.754867 396.225656,316.951359 C394.424724,319.432891 392.707123,322.018711 391.122939,324.634236 C390.193664,326.163044 388.529635,327.048412 386.775163,326.997954 C385.932226,326.973869 385.106787,326.733881 384.368312,326.287855 Z" id="Stroke-36" fill="#1A1919" fill-rule="nonzero"></path>
            <path d="M243.774181,173 L200.260607,173 C198.296194,173 196.478833,172.613122 194.858073,171.852317 C191.13464,170.100036 189,166.814812 189,162.839199 C189,158.852254 191.121853,155.586455 194.819712,153.87788 C196.394918,153.151068 198.160332,152.782806 200.068801,152.782806 L204.415603,152.782806 C205.914087,152.742337 207.249536,152.498718 208.187786,152.077846 C208.666502,151.864983 209.042122,151.430352 209.22194,150.888076 C209.32104,150.592657 209.43932,150.01234 209.129234,149.446592 C208.469901,148.242253 206.208989,147.975162 205.789413,147.971924 L193.067085,147.971924 C191.180194,147.971924 189.649743,146.421985 189.649743,144.511068 C189.649743,142.599342 191.180194,141.049403 193.067085,141.049403 L205.81179,141.049403 C206.502292,141.055068 212.445079,141.23232 215.107985,146.089335 C216.263616,148.202594 216.478598,150.752912 215.702583,153.093603 C214.912982,155.473144 213.182733,157.41077 210.954587,158.409529 C209.180382,159.203519 207.011377,159.638959 204.504313,159.704518 L200.068801,159.705327 C199.145735,159.705327 198.332957,159.864772 197.654444,160.177188 C196.056061,160.916141 195.836283,161.893048 195.836283,162.839199 C195.836283,163.748928 196.060856,164.784109 197.73676,165.573242 C198.448041,165.908321 199.297581,166.077479 200.260607,166.077479 L243.770185,166.077479 C245.257481,166.03701 247.081235,165.419463 247.081235,162.72265 C247.081235,161.496458 246.805514,160.141576 244.756388,159.384008 C244.137814,159.156576 243.396164,159.039217 242.558611,159.039217 L240.12827,159.039217 C240.126672,159.039217 240.125073,159.039217 240.123475,159.039217 C239.707096,159.039217 236.1451,158.960709 233.566909,156.353736 C232.447242,155.219812 231.110194,153.181824 231.110194,149.907932 C231.110194,146.022158 233.157723,142.866433 236.727711,141.252554 C238.204617,140.584826 239.858144,140.24651 241.643537,140.24651 L281.505606,140.24651 C284.164516,140.18257 284.164516,138.203666 284.164516,137.552125 C284.164516,136.487807 283.925558,135.411348 282.189714,134.758998 C281.642268,134.552609 280.982935,134.447391 280.232494,134.447391 L248.833862,134.447391 C244.970571,134.375357 239.318689,131.74815 239.318689,124.811869 C239.318689,117.708859 246.10782,114.666446 249.698587,114.051326 C251.570294,113.723532 253.324519,115.000715 253.637802,116.885732 C253.954282,118.76994 252.70035,120.556214 250.839033,120.875914 C250.81266,120.88158 246.154973,121.77674 246.154973,124.811869 C246.154973,126.52611 247.093223,127.438267 248.941753,127.527298 L280.232494,127.52487 C281.796512,127.52487 283.255036,127.774964 284.568108,128.268678 C288.65757,129.806477 291,133.190443 291,137.552125 C291,141.025931 289.588628,143.176421 288.405026,144.367001 C285.674188,147.115613 281.921186,147.113995 281.485626,147.169032 L241.643537,147.169032 C240.824366,147.169032 240.107491,147.305005 239.514491,147.573715 C238.213408,148.162126 237.946478,148.932644 237.946478,149.907932 C237.946478,150.493105 237.946478,152.046281 240.175423,152.116696 L242.558611,152.116696 C244.197753,152.116696 245.724208,152.373266 247.098018,152.880739 C251.432833,154.480859 253.917519,158.069595 253.917519,162.72265 C253.917519,170.255434 247.850857,172.996763 243.774181,173" id="Fill-37" fill="#1A1919"></path>
            <path d="M203,383 C190.803118,395.269597 179.042506,403.59127 162,418" id="Fill-38" fill="#1A1919"></path>
            <path d="M162.491127,423 C161.506225,423 160.527035,422.575889 159.836706,421.750998 C158.584159,420.254528 158.757965,418.004824 160.223486,416.727492 C166.240608,411.47985 171.511097,407.079596 176.606964,402.821823 C186.283808,394.737887 194.64201,387.757972 203.022243,379.06245 C204.376789,377.658468 206.586494,377.646803 207.958992,379.022455 C209.331489,380.40394 209.349441,382.66031 207.997343,384.063459 C199.353545,393.031445 190.859889,400.124678 181.025559,408.337763 C175.958251,412.571373 170.716322,416.94913 164.755503,422.145946 C164.09863,422.720037 163.291614,423 162.491127,423" id="Fill-39" fill="#1A1919"></path>
            <path d="M361.414646,282 C360.05684,282 358.773226,281.173908 358.241112,279.818083 C357.546254,278.045578 358.404656,276.037277 360.155763,275.334735 C421.83305,250.574576 468.885595,247.038448 469.352291,247.006148 C471.272526,246.89471 472.860091,248.311099 472.991723,250.212 C473.12176,252.114515 471.704121,253.76347 469.825369,253.896711 C469.366651,253.928204 423.292173,257.41911 362.670338,281.755322 C362.25789,281.920863 361.832678,282 361.414646,282" id="Fill-40" fill="#1A1919"></path>
            <polyline id="Fill-41" fill="#1A1919" points="200 215.622968 211 218 204.91942 212 200 215.622968"></polyline>
            <path d="M583.470606,327 C583.370251,327 583.269106,326.995202 583.167171,326.987205 C581.307844,326.818471 579.934486,325.157521 580.101217,323.276656 C580.858223,314.706409 581.241467,305.967427 581.241467,297.303616 C581.241467,217.369281 548.014583,140.325816 490.08069,85.927094 C488.712864,84.6427964 488.632264,82.4788428 489.902897,81.0937845 C491.171949,79.7071269 493.313376,79.6295573 494.678041,80.9146546 C553.984502,136.600873 588,215.471624 588,297.303616 C588,306.168948 587.607273,315.114249 586.833673,323.884419 C586.677215,325.662123 585.201131,327 583.470606,327" id="Fill-42" fill="#0A0B09"></path>
            <path d="M4.91371729,330 C3.18322036,330 1.70016534,328.683719 1.51977221,326.917722 C0.511646001,316.95022 0,306.773492 0,296.675325 C0,213.603725 35.0952439,133.861306 96.2876267,77.8945138 C97.6844762,76.6175128 99.8412117,76.7209234 101.109551,78.1205742 C102.380285,79.520225 102.278115,81.6894432 100.885257,82.9632377 C41.1104768,137.634592 6.82780014,215.528445 6.82780014,296.675325 C6.82780014,306.541821 7.32747315,316.48367 8.31404796,326.225111 C8.50401949,328.108147 7.13750162,329.790774 5.26253055,329.981562 C5.1451952,329.99519 5.02865804,330 4.91371729,330" id="Fill-43" fill="#0A0B09"></path>
            <path d="M533.369557,317 C533.299319,317 533.230715,316.99841 533.161294,316.996024 C530.75115,316.886286 528.890659,314.89509 529.005,312.550027 C529.139759,309.755674 529.228782,306.942235 529.267984,304.192413 C529.302287,301.846555 531.273851,299.95317 533.694612,300.000882 C536.107206,300.034281 538.033851,301.963451 537.999549,304.311694 C537.958713,307.15535 537.86724,310.061033 537.726764,312.949221 C537.617324,315.226691 535.685778,317 533.369557,317" id="Fill-44" fill="#0A0B09"></path>
            <path d="M502.446565,177.131183 C500.925344,177.131183 499.446538,176.35102 498.646368,174.961579 C495.851074,170.114504 492.844522,165.285796 489.713988,160.611205 C488.394237,158.638837 488.956232,155.99251 490.969301,154.699691 C492.982369,153.406073 495.684677,153.957857 497.007691,155.928628 C500.244261,160.761328 503.351141,165.752138 506.239421,170.76291 C507.422955,172.817527 506.68396,175.420733 504.587693,176.579399 C503.909873,176.954708 503.173325,177.131183 502.446565,177.131183 Z M523.485905,223.989694 C521.649836,223.989694 519.939381,222.843005 519.341496,221.039926 C517.573943,215.722518 515.606552,210.408304 513.492341,205.242616 C512.595922,203.054645 513.681576,200.569622 515.917322,199.692836 C518.151436,198.812058 520.688979,199.878095 521.58703,202.066864 C523.77302,207.408228 525.80648,212.90291 527.633577,218.39839 C528.379097,220.641459 527.126231,223.049824 524.836651,223.778882 C524.388034,223.921819 523.933707,223.989694 523.485905,223.989694 Z M534.633639,274 C532.450096,274 530.565903,272.399747 530.307336,270.225351 C529.647461,264.685952 528.791825,259.093051 527.762452,253.601564 C527.328517,251.282634 528.895415,249.057931 531.26493,248.633113 C533.63363,248.2059 535.90445,249.741472 536.340017,252.0612 C537.402832,257.735551 538.288647,263.512912 538.970546,269.23757 C539.247873,271.579657 537.535786,273.698156 535.143432,273.972051 C534.972957,273.992813 534.802482,274 534.633639,274 L534.633639,274 Z" id="Fill-45" fill="#0A0B09"></path>
            <path d="M471.799704,135 C470.620447,135 469.44748,134.530384 468.617283,133.611408 C466.831102,131.638423 464.979668,129.658686 463.113298,127.729961 C461.540169,126.102061 461.647088,123.564186 463.352294,122.062317 C465.059858,120.559697 467.719475,120.664723 469.291818,122.291123 C471.217937,124.285114 473.132264,126.330117 474.977408,128.369118 C476.495505,130.045781 476.300535,132.576904 474.544228,134.02401 C473.750981,134.679671 472.772984,135 471.799704,135" id="Fill-46" fill="#0A0B09"></path>
            <path d="M119.207488,135 C118.238203,135 117.263406,134.68232 116.468923,134.034972 C114.704367,132.595673 114.500431,130.065472 116.015382,128.387163 C117.859465,126.340975 119.766539,124.29179 121.686212,122.298798 C123.256281,120.669939 125.921618,120.557552 127.632631,122.050048 C129.348368,123.544043 129.464902,126.077241 127.894834,127.709846 C126.036578,129.638402 124.190133,131.622403 122.404318,133.603407 C121.57204,134.525728 120.393307,135 119.207488,135" id="Fill-47" fill="#0A0B09"></path>
            <path d="M88.5511979,177.168569 C87.8239072,177.168569 87.0859573,176.992351 86.4062234,176.61829 C84.2965065,175.458459 83.5487172,172.849642 84.7351767,170.787098 C87.6304003,165.756093 90.7289701,160.763535 93.944792,155.945592 C95.2657224,153.961545 97.9879377,153.403257 100.009921,154.697653 C102.038463,155.989647 102.610784,158.641718 101.286574,160.622561 C98.175705,165.284311 95.1779883,170.11587 92.3745985,174.985075 C91.5718729,176.382799 90.0836739,177.168569 88.5511979,177.168569 Z M67.5302839,224.019154 C67.0817743,224.019154 66.6242454,223.950269 66.1757358,223.808494 C63.873332,223.077993 62.6122575,220.662213 63.3600468,218.41384 C65.1795034,212.937486 67.2121455,207.446714 69.4054967,202.088905 C70.3025158,199.894198 72.8599223,198.824078 75.1016503,199.701961 C77.3499377,200.580645 78.4437435,203.070916 77.5450845,205.267225 C75.4247084,210.448816 73.4584817,215.763371 71.6980612,221.0571 C71.0970419,222.868935 69.3776186,224.019154 67.5302839,224.019154 Z M56.3888797,274 C56.2216111,274 56.0510626,273.991189 55.8813341,273.971965 C53.4764373,273.700431 51.7520943,271.57541 52.0292355,269.227714 C52.7040497,263.510262 53.5879497,257.732736 54.6522375,252.056135 C55.0892679,249.731668 57.3703531,248.180154 59.7547514,248.616692 C62.1350499,249.043619 63.7118029,251.275171 63.2755925,253.602041 C62.2441025,259.092814 61.3897205,264.679704 60.7378647,270.207322 C60.4812221,272.390815 58.5855107,274 56.3888797,274 L56.3888797,274 Z" id="Fill-48" fill="#0A0B09"></path>
            <path d="M57.6386676,317 C55.3310396,317 53.4040766,315.230823 53.2899586,312.958326 C53.1464961,310.117306 53.0494958,307.211085 53.0005881,304.320767 C52.961462,301.973527 54.8794586,300.040552 57.2865322,300 C57.310986,300 57.336255,300 57.3598937,300 C59.7327319,300 61.6768126,301.858232 61.7159388,304.181618 C61.7624011,306.980496 61.856956,309.792095 61.9947126,312.540084 C62.1120911,314.886529 60.260935,316.88073 57.8571219,316.994434 C57.7837604,316.99841 57.7103988,317 57.6386676,317" id="Fill-49" fill="#0A0B09"></path>
            <polyline id="Fill-50" fill="#C1933F" points="230 406.850781 230 359.025849 211.326211 358.106093 207.428462 353 206 384.166616 208.538726 412 220.156429 411.274703 230 406.850781"></polyline>
            <path d="M237.452989,404.350229 C236.524986,415.217544 235.548016,426.282404 230.978291,436.40755 C228.167428,442.633747 224.071577,448.332634 219.99863,453.989021 C218.317957,456.325714 216.635704,458.663194 214.953451,460.9991 C212.341615,464.628097 209.662648,468.417649 209.08926,472.686501 C208.515873,476.956141 210.718597,481.842026 215.304118,483.294097 C216.980052,483.825342 218.798149,483.85761 220.578336,483.884369 C224.331418,483.94261 225.644049,485.979444 229.177569,484.861074 C232.082417,483.941036 243.299805,478.898532 246.124094,477.799051 C249.379609,476.530358 253.706868,484.687927 257.265662,484.687927 C268.250852,484.687927 267.20359,488.281508 279.514837,483.57428 C279.084401,484.233024 296.942344,480.412779 296.135968,480.145975 C300.333702,480.578055 309.146179,480.156207 313.373136,480.172734 C319.514543,480.196345 326.279094,481.823924 332.411814,482.108042 C331.582534,482.154477 337.585729,482.060033 336.754869,482.108042 C351.766408,484.103164 339.27114,480.426158 354.352971,481.953784 C357.81778,482.3048 363.803598,481.518556 365.45347,484.229089 C371.337405,485.47968 377.951107,483.449142 381.682865,479.244825 C385.415413,475.041296 386.067779,468.88908 383.284559,464.147222 C381.70024,461.450069 379.100252,459.233004 376.009803,457.892692 C374.753247,457.348067 373.346631,456.892376 372.544205,455.879468 C372.088496,455.303362 371.882361,454.60684 371.665958,453.930781 C369.726234,447.8856 366.245629,442.23 361.556646,437.502309 C362.220069,437.792723 362.882703,438.083137 363.545337,438.373551 C356.38826,430.623663 352.802613,420.377315 353.761418,410.415872 C353.970712,408.238159 353.890154,405.347396 351.512096,404.738234 C350.673339,404.522588 349.775348,404.69967 348.931062,404.896428 C344.789403,405.861327 340.793066,407.309463 337.078683,409.190465 C336.656935,409.403751 336.201227,409.668193 336.097764,410.086106 C335.995881,410.504019 336.56295,410.991978 336.945209,410.728323 C325.427701,411.55313 313.909403,412.377151 302.391895,413.201959 C297.829278,413.52779 293.262712,413.855194 288.685089,413.885888 C283.516703,413.921305 278.344368,413.577373 273.240745,412.861175 C261.463396,411.208411 250.172558,407.595155 238.964648,404 L237.452989,404.350229" id="Fill-51" fill="#688496"></path>
            <path d="M207.859907,346.193689 C209.145392,338.661432 210.430877,331.128381 211.716363,323.596125 C212.256107,320.436003 212.798247,317.263191 213.809069,314.220464 C217.809244,302.18202 228.953844,293.416332 241.147592,289.680345 C253.342936,285.943565 266.489221,286.632065 279.063025,288.799096 C291.636031,290.966127 304.847787,283.316476 317.443947,285.346283 C327.984129,287.045324 338.584993,298.699858 347.664033,293.117294 C350.487311,291.380973 353.505407,288.996604 356.727903,289.791394 C357.751501,290.044425 358.668108,290.6076 359.544793,291.19219 C368.997502,297.502914 377.948793,304.786106 380.586034,315.794179 C379.086567,316.568345 381.119391,326.530183 381.804451,324.994542 C387.48933,335.783691 384.031295,338.965228 383.172974,351.112341 C383.113091,351.962655 383.012487,352.872459 382.455976,353.521299 C381.867527,354.206627 380.916587,354.436655 380.031119,354.628611 C377.20385,355.240963 374.375782,355.853316 371.547714,356.465669 C369.914908,356.818644 368.163933,357.164481 366.614165,356.544989 C363.531395,355.312352 363.055526,351.301917 362.412783,348.063268 C361.770839,344.823827 359.048165,341.017245 355.977371,342.277645 C353.935765,343.11606 353.366479,345.668588 353.075049,347.843551 C351.001505,363.286423 351.674588,378.386631 353.429555,393.868369 C353.625173,395.595173 351.055799,398.080278 349.915629,399.398582 C349.109206,400.331389 347.837294,400.693089 346.641234,401.009577 C340.751156,402.568221 337.688347,407.10693 331.799067,408.665574 C321.852923,411.296629 309.01244,410.959517 298.750115,411.739236 C289.738942,412.422977 280.681459,411.657536 271.701425,410.651754 C260.658227,409.414358 248.369465,407.060924 242.04344,397.985094 C236.907087,390.613064 237.248818,380.865391 238.279602,371.957719 C239.310386,363.050841 240.770729,353.683906 237.351817,345.386208 C237.03324,344.612041 236.642005,343.816459 235.945767,343.346882 C234.742521,342.535436 233.012306,343.017703 231.985514,344.040142 C230.958723,345.063374 230.464489,346.485587 230.002992,347.856242 C228.759824,351.54543 227.499888,355.360737 227.820062,359.238707 C222.135182,357.155756 216.451101,355.072804 210.766221,352.990646 C208.77332,352.260899 206.499368,351.22101 206.061025,349.157095 C205.750433,347.696015 206.65666,346.077088 208.069097,345.567058 C208.705453,345.337029 209.131819,345.992215 208.883504,344.447055 C208.601656,342.69487 208.376496,343.999689 208.883504,344.447055" id="Fill-52" fill="#F6F3EB"></path>
            <path d="M335,348 C335,342.477132 330.522413,338 325,338 C319.477587,338 315,342.477132 315,348 C315,353.522868 319.477587,358 325,358 C330.522413,358 335,353.522868 335,348" id="Fill-53" fill="#F3B62B"></path>
            <path d="M297.163421,415 C260.189781,415 245.572807,407.875383 239.821055,401.897567 C236.08709,398.017983 235.982627,394.639528 236.001477,394.001799 C236.045462,392.299864 237.41919,390.910044 239.131442,391.004552 C240.772219,391.04982 242.074473,392.399137 242.096465,394.042302 C242.162442,394.583141 244.518751,408.833962 297.163421,408.833962 C332.786896,408.833962 344.299825,402.182679 347.98902,398.216528 C349.980887,396.078587 349.909412,394.504517 349.906271,394.437805 C349.808091,392.797023 350.993315,391.284104 352.607387,391.103824 C354.232455,390.924339 355.687869,391.973455 355.944707,393.597559 C356.009898,394.003387 356.470949,397.680455 352.98204,401.821326 C345.609933,410.565282 326.82936,415 297.163421,415" id="Fill-54" fill="#1A1919"></path>
            <path d="M321.501686,335.543718 C317.664409,335.543718 314.543514,338.66471 314.543514,342.500421 C314.543514,346.33529 317.664409,349.456282 321.501686,349.456282 C325.335591,349.456282 328.456486,346.33529 328.456486,342.500421 C328.456486,338.66471 325.335591,335.543718 321.501686,335.543718 Z M321.501686,356 C314.05806,356 308,349.94428 308,342.500421 C308,335.056563 314.05806,329 321.501686,329 C328.945312,329 335,335.056563 335,342.500421 C335,349.94428 328.945312,356 321.501686,356 L321.501686,356 Z" id="Fill-55" fill="#1A1919"></path>
            <path d="M222.443954,361 C217.149545,361 210.489845,359.163481 204.680746,351.989901 C203.608075,350.663746 203.826939,348.731485 205.16898,347.672776 C206.511021,346.613277 208.469568,346.8285 209.543842,348.153863 C216.758317,357.066637 225.378166,354.999861 228.75251,353.69507 C230.357508,353.07393 232.161327,353.855697 232.785048,355.435055 C233.411173,357.014414 232.623105,358.795544 231.022917,359.415102 C229.485262,360.00934 226.332186,361 222.443954,361" id="Fill-56" fill="#1A1919"></path>
            <path d="M244.090925,453 C243.028211,453 241.993338,452.44872 241.421414,451.461841 C240.561539,449.984316 241.059487,448.087945 242.533445,447.227119 C257.47666,438.49041 275.063931,432.203745 293.388579,429.047648 C295.080489,428.748473 296.665809,429.890125 296.955351,431.574281 C297.242506,433.260033 296.114567,434.862015 294.434588,435.150021 C276.828226,438.183257 259.956855,444.209839 245.642041,452.577166 C245.153638,452.863576 244.618304,453 244.090925,453" id="Fill-57" fill="#1A1919"></path>
            <path d="M291,479.809274 C282.128521,482.199234 271.950051,486.161536 262.699354,485.994909 C261.362153,485.971222 257.141462,485.930382 255.923512,485.425598 C253.947921,484.607164 247.501212,484.292695 246.423978,482.57823 C246.04635,481.977064 243.875982,482.748125 244.708354,478.276139 C244.927776,477.095861 243.305962,477.764004 244.358551,476.983959 C253.133039,470.481406 269.969689,462.566603 279.865137,462.230898 C280.910571,462.194959 282.237437,461.609312 282.751806,462.454701 C282.924323,462.738131 282.935453,463.077104 282.936248,463.400557 C282.943403,465.840342 282.64289,468.286661 282.902857,470.715011 C283.16203,473.144177 286.111504,475.059576 288.106176,476.690728" id="Fill-58" fill="#C0923F"></path>
            <path d="M235.637014,418 C235.597672,418 235.557588,417.998382 235.517504,417.997573 C233.927509,417.926379 232.690846,416.463673 232.75691,414.731563 L235.237659,348.912206 C235.25399,348.343465 234.987506,347.951091 234.824943,347.768253 C234.663123,347.585415 234.31276,347.280414 233.771627,347.280414 C232.99296,347.280414 232.34939,347.944619 232.306337,348.790853 L230.096525,384.916787 C229.73577,390.524097 229.364622,396.321527 230.687392,401.343108 C231.127573,403.009687 230.242757,404.749078 228.71363,405.226399 C227.187472,405.713429 225.587826,404.745842 225.149872,403.076027 C223.546516,396.990586 223.972593,390.342877 224.348194,384.478298 L226.555037,348.410614 C226.764364,344.270864 229.93322,341 233.771627,341 C235.7491,341 237.595188,341.853515 238.969918,343.403595 C240.343905,344.953676 241.063189,346.994022 240.99564,349.14763 L238.514149,414.988831 C238.451054,416.677254 237.174306,418 235.637014,418" id="Fill-59" fill="#1A1919"></path>
            <path d="M205.349087,406 C203.869943,406 202.556043,404.958512 202.276336,403.468052 C201.990986,401.9433 195.406173,365.586914 206.037474,319.636237 C210.00013,302.505911 219.44489,294.26731 226.671337,290.37409 C234.566019,286.118025 241.54742,286.00319 241.84083,286 C241.851309,286 241.862594,286 241.870655,286 C243.585173,286 244.98371,287.366056 244.999831,289.065452 C245.017565,290.771227 243.634343,292.169182 241.910959,292.190714 C240.922713,292.209055 218.632368,292.946709 212.13703,321.016647 C201.810425,365.651508 208.362995,401.981579 208.429899,402.342032 C208.743462,404.023087 207.620601,405.637154 205.921399,405.94657 C205.728747,405.983253 205.537708,406 205.349087,406" id="Fill-60" fill="#1A1919"></path>
            <path d="M227.077565,485 C225.590543,485 224.281361,483.942376 224.039214,482.455166 C223.770074,480.807639 224.914913,479.258948 226.595652,478.995904 C234.587299,477.744499 242.428895,472.787131 250.011671,467.991637 C256.341633,463.988387 262.888337,459.849724 269.716884,457.698678 L271.516712,457.129787 C284.514055,453.01525 304.813918,446.586236 326.153823,448.912386 C323.059898,445.446119 320.351027,440.889544 319.827831,435.297913 C319.674603,433.635599 320.920271,432.166288 322.617682,432.014532 C324.293658,431.851102 325.810848,433.085386 325.966457,434.746143 C326.948542,445.270238 339.19642,451.531931 339.320273,451.593411 C340.735047,452.30472 341.370186,453.956138 340.7803,455.405215 C340.18962,456.853513 338.582716,457.621633 337.04806,457.182707 C313.189031,450.285974 288.286786,458.167955 273.411016,462.878622 L271.600868,463.451404 C265.545603,465.357306 259.622924,469.102181 253.352506,473.068075 C245.234625,478.201324 236.83887,483.509677 227.56821,484.961088 C227.403868,484.987548 227.239525,485 227.077565,485" id="Fill-61" fill="#1A1919"></path>
            <path d="M259.497933,487 C245.463203,487 241.920912,481.475527 241.237397,480.023614 C240.576558,478.623252 241.342678,477.021628 242.948614,476.446089 C244.559409,475.869137 246.391293,476.539305 247.050513,477.93896 C249.419329,482.956394 266.670789,481.590635 277.58435,479.089333 C306.512251,474.552105 333.53943,475.001237 365.466212,480.512293 C367.17014,480.806771 368.274777,482.248092 367.940309,483.733902 C367.602601,485.218299 365.938355,486.187183 364.244146,485.88988 C333.119117,480.518649 306.810276,480.071634 278.939231,484.439379 C270.883637,486.29311 264.519013,487 259.497933,487" id="Fill-62" fill="#1A1919"></path>
            <path d="M286.784005,474 C286.033504,474 285.282174,473.752339 284.672495,473.247641 C281.408726,470.542119 276.36728,463.380259 280.646628,455.63245 C281.468369,454.148046 283.413376,453.568347 284.983133,454.344925 C286.558689,455.117597 287.170853,456.949664 286.349112,458.434068 C283.346278,463.873238 288.701676,468.509267 288.931963,468.703021 C290.246582,469.819449 290.365039,471.732768 289.190413,472.979667 C288.555055,473.654681 287.671187,474 286.784005,474" id="Fill-63" fill="#1A1919"></path>
            <path d="M368.598308,489 C366.36913,489 364.094038,488.632582 361.873568,487.868802 C360.268179,487.315664 359.406906,485.543695 359.950743,483.912421 C360.496163,482.281148 362.24325,481.406419 363.847847,481.957145 C370.662831,484.307979 376.580127,481.276979 379.190862,477.477374 C380.318909,475.835649 382.524339,471.503811 378.711146,466.708077 L356.745508,439.086578 C356.634682,438.945077 356.532564,438.792321 356.445487,438.63233 C351.941217,430.336875 349.438933,421.46738 349.003547,412.269057 C348.922802,410.547738 350.230545,409.084497 351.926968,409.002491 C353.58302,408.934957 355.062542,410.248658 355.143286,411.969977 C355.528009,420.119911 357.732647,427.994885 361.700205,435.380235 L383.494063,462.785464 C387.887507,468.312819 388.172487,475.309847 384.231845,481.047041 C380.736088,486.136227 374.830666,489 368.598308,489" id="Fill-64" fill="#1A1919"></path>
            <path d="M222.136431,485.999999 C216.161046,486.001595 210.459361,483.307755 206.968326,478.471288 C202.968101,472.927259 203.013328,466.026339 207.089971,460.464761 L228.23424,431.61188 C231.048433,425.312428 232.635267,418.697883 232.948735,411.947728 C233.029831,410.239051 234.460711,408.958739 236.115385,409.001017 C237.786434,409.082383 239.074616,410.534201 238.996639,412.240485 C238.640283,419.90002 236.822637,427.393632 233.594386,434.508336 C233.506271,434.703773 233.396324,434.88884 233.270781,435.061941 L211.934688,464.178064 C208.407784,468.991398 210.693292,473.203264 211.838776,474.792286 C214.505592,478.493624 220.398322,481.366946 227.027934,478.933955 C228.593714,478.355621 230.334163,479.190815 230.898717,480.804566 C231.463272,482.412733 230.645292,484.186025 229.070934,484.763561 C226.793223,485.599553 224.445333,485.999999 222.136431,485.999999" id="Fill-65" fill="#1A1919"></path>
            <polyline id="Fill-66" fill="#C1933F" points="362.566627 404.372788 361 356.301346 379.673619 355.33954 383.572255 350 385 382.591531 382.354361 412 371.822931 410.93898 362.566627 404.372788"></polyline>
            <path d="M360.907151,406 C360.105589,408.957249 359.12348,411.587092 357.992733,413.675328 C356.045637,417.269474 353.861963,420.923073 350.521861,423.127776 C348.812121,424.256596 346.87592,424.949689 345.09225,425.947384 C342.48367,427.414199 340.898445,430.304664 341.00506,433.401998 L341.123349,436.884564 L342.500791,436.922843 C345.429217,437.005916 348.382546,436.628014 351.112527,435.514668 C352.85573,434.803657 354.462746,433.835282 355.661198,432.470273 C356.109451,436.847914 356.220736,440.377718 356.4542,444.213753 C356.671322,447.788352 357.509461,451.299424 358.943713,454.551502 L360.907151,459 L362.884597,457.001352 C365.669054,454.187445 367.062838,450.19015 366.664392,446.161091 L366.657388,446.083719 C366.468281,444.177918 366.279953,442.270488 366.090847,440.363058 L369.895544,449.607822 C370.623175,451.379239 371.70723,452.966592 373.072221,454.260745 L378.826348,459 C381.217027,453.53426 380.939982,447.364026 379.429465,441.565179 L378.067588,436.336443 L383.891755,446.097564 C385.196823,448.284349 387.173491,449.94093 389.497243,450.795282 L394,452.453492 L393.077036,446.339454 C392.638122,443.436773 391.726832,440.628567 390.330712,438.079355 C388.560272,434.846008 386.469206,431.764964 385.097211,428.324748 C383.107313,423.335459 382.739217,417.403857 383.084745,411.494245" id="Fill-67" fill="#6BB85B"></path>
            <path d="M359.076891,461.999077 C358.882392,461.999077 358.686257,461.980448 358.491758,461.94481 C357.481667,461.758519 356.626849,461.095972 356.195353,460.172618 L354.135945,455.747809 C352.466353,452.166167 351.490585,448.330198 351.236428,444.348437 L351.059907,441.342676 C350.994529,440.233032 350.935689,439.150116 350.861321,438.04938 C350.564668,438.179784 350.257392,438.306138 349.941125,438.428442 C346.914938,439.599643 343.442547,440.156085 339.662878,440.041881 L338.21884,440.003003 C336.543527,439.959265 335.192653,438.634171 335.133813,436.974564 L335.007143,433.511986 C334.855139,429.197331 337.138468,425.253638 340.96717,423.21578 C341.803192,422.771922 342.667817,422.383141 343.529172,421.99679 C344.598104,421.517294 345.610646,421.064527 346.481809,420.520234 C349.402573,418.694585 351.428476,415.423158 353.25661,412.227867 C354.278959,410.437856 355.239199,408.038756 356.025371,405.288133 C356.505899,403.616376 358.249859,402.642805 359.943968,403.122301 C361.629904,403.596127 362.608123,405.334301 362.128412,407.004437 C361.192689,410.277484 360.062465,413.077515 358.776969,415.329202 C356.648096,419.048537 354.030523,423.235219 349.863489,425.839239 C348.622123,426.61599 347.361144,427.180532 346.141026,427.727255 C345.409609,428.053668 344.67574,428.381702 343.966388,428.755903 C342.28372,429.652529 341.280167,431.390702 341.345545,433.288438 L341.363524,433.752544 C343.690166,433.678838 345.796974,433.281148 347.639818,432.569193 C349.219515,431.960104 350.428192,431.210081 351.233159,430.343424 C352.075719,429.43303 353.365301,429.099326 354.563354,429.484867 C355.744245,429.872028 356.589256,430.907966 356.722464,432.135865 C357.079592,435.417822 357.237316,438.25187 357.391772,440.990344 L357.568293,443.949936 C357.772599,447.154137 358.556318,450.236843 359.894934,453.1122 L360.028142,453.395686 C361.533472,451.406425 362.230565,448.933618 361.967419,446.408974 L363.562643,446.061501 L363.488276,445.89384 L361.929826,446.053402 L361.366758,440.640441 C361.208216,439.095848 362.209317,437.668699 363.726905,437.278299 C365.235504,436.886278 366.81847,437.65493 367.437927,439.078029 L371.430892,448.271881 C372.020112,449.630183 372.878199,450.821634 373.983905,451.811405 L376.260696,453.583596 C376.873615,450.262762 376.610469,446.500499 375.46717,442.342976 L374.037025,437.142226 C373.621057,435.638131 374.382711,434.059519 375.826749,433.43504 C377.267518,432.805702 378.952637,433.324076 379.789476,434.64917 L385.907228,444.356536 C386.836414,445.834712 388.23387,446.984855 389.863418,447.623103 L389.726941,446.754827 C389.315059,444.177535 388.474951,441.775195 387.223779,439.611793 C386.67542,438.66009 386.092738,437.720537 385.510874,436.780174 C384.104428,434.510667 382.651401,432.164214 381.551415,429.561813 C379.516523,424.718255 378.745062,418.7853 379.200257,411.417907 C379.308948,409.686214 380.839611,408.35383 382.558237,408.472084 C384.308735,408.577379 385.640812,410.068515 385.532121,411.801828 C385.138219,418.18836 385.751955,423.20444 387.406837,427.139224 C388.313958,429.288857 389.578206,431.329955 390.916004,433.490928 C391.53301,434.484748 392.145929,435.477759 392.728611,436.485348 C394.364697,439.316157 395.463865,442.440982 395.993428,445.773965 L396.960206,451.852713 C397.136726,452.947778 396.718307,454.051753 395.857768,454.760468 C395.002133,455.468372 393.831048,455.678962 392.774375,455.31043 L388.047542,453.662162 C386.136051,452.994756 384.388823,451.936138 382.924354,450.576216 C382.846718,454.031504 382.130828,457.235704 380.779954,460.162899 C380.377062,461.039275 379.586804,461.684003 378.642909,461.909981 C377.691658,462.14163 376.697094,461.918891 375.93544,461.326001 L369.891239,456.613655 C368.819856,455.657093 367.917639,454.645453 367.164974,453.565777 C366.319963,455.629554 365.034467,457.52405 363.361606,459.12858 L361.279314,461.117841 C360.681923,461.687243 359.891665,461.999077 359.076891,461.999077" id="Fill-68" fill="#1A1919"></path>
            <path d="M206.845429,411.243785 C207.349032,417.01139 207.09723,422.747853 204.919936,428.039549 C203.501981,431.489092 201.322326,434.568928 199.506209,437.819643 C198.119729,440.302197 197.33285,443.083391 197.185703,445.934056 L197,449.540106 L201.012296,449.108115 C202.961395,448.898906 204.708266,447.789782 205.746159,446.10254 L212.029388,435.894447 L208.531711,448.909287 C208.069026,450.631663 208.005289,452.438681 208.346007,454.189803 L209.280819,459 L209.796225,458.918552 C213.934421,458.261382 217.484819,455.519315 219.142773,451.615422 C219.153002,451.590668 219.163232,451.566713 219.174248,451.541161 C220.828268,447.64126 222.483861,443.742158 224.13788,439.842258 C223.947456,441.712357 223.757031,443.582457 223.565819,445.45096 L223.537492,445.732832 C223.149561,449.564061 224.536828,453.360156 227.291691,456.008 L229.706623,458.330054 C232.170341,452.297345 233.768492,445.93725 234.455437,439.443803 L235.24389,431.980173 C239.500118,435.396978 242.022065,436.023805 245.035811,436.462184 C246.083934,436.614699 247.309104,436.598728 248.2809,436.171528 C250.156819,435.346672 250.323637,431.959412 249.609151,430.015051 C248.896239,428.07069 247.173761,426.68688 245.371021,425.708711 C243.568282,424.730542 241.608953,424.051014 239.88018,422.944285 C236.502896,420.782731 234.295701,417.200636 232.326929,413.676831 C230.772057,410.893241 229.986752,409.561334 228.976399,406" id="Fill-69" fill="#6BB85B"></path>
            <path d="M209.30276,462 C207.870845,462 206.601523,460.975858 206.315611,459.507681 L205.381685,454.715618 C205.136618,453.454339 205.058856,452.158843 205.146829,450.873692 C204.011037,451.5477 202.732289,451.979001 201.376565,452.125421 L197.369874,452.555131 C196.491717,452.639482 195.600992,452.348234 194.950622,451.724358 C194.303393,451.10287 193.957786,450.225148 194.004128,449.322756 L194.187929,445.729107 C194.361518,442.406811 195.297015,439.139423 196.899377,436.280259 C197.499477,435.205984 198.138066,434.150807 198.778225,433.093243 C200.060115,430.975727 201.270527,428.977575 202.139258,426.868017 C203.848445,422.722906 204.388064,417.867977 203.838233,411.591823 C203.689779,409.892081 204.927683,408.393666 206.606235,408.241676 C208.321706,408.124699 209.764617,409.347781 209.912286,411.045932 C210.552445,418.357369 209.870656,424.141745 207.767163,429.247337 C206.716201,431.799338 205.322775,434.099083 203.974905,436.32323 C203.372449,437.318725 202.769206,438.31422 202.203667,439.326426 C201.069446,441.35243 200.403366,443.668886 200.278476,446.0307 L200.730908,445.980567 C201.751235,445.872344 202.649029,445.303376 203.19179,444.42247 L209.464567,434.247094 C210.263391,432.948414 211.887747,432.432762 213.270962,433.05425 C214.65732,433.667781 215.389379,435.218716 214.991931,436.696441 L211.500509,449.668912 C211.164327,450.91905 211.116414,452.250355 211.363837,453.520387 L211.670171,455.093604 C213.755598,454.165748 215.43258,452.489083 216.350797,450.327801 L221.336971,438.598306 C221.933929,437.195383 223.460886,436.444981 224.905368,436.830129 C226.362418,437.214481 227.324621,438.620588 227.169883,440.138101 L226.59806,445.727515 C226.33257,448.355909 227.037138,450.807644 228.48869,452.691206 C229.935529,448.281107 230.913441,443.724589 231.405146,439.093269 L232.192189,431.65451 C232.31001,430.535672 233.020076,429.56962 234.045116,429.133544 C235.067015,428.699855 236.242866,428.86219 237.11631,429.560867 C240.833162,432.542577 242.821977,433.012871 245.430528,433.393244 C245.995282,433.474411 246.468136,433.460088 246.776826,433.39961 C246.937062,432.91181 246.97398,431.83276 246.706134,431.103844 C246.280408,429.944423 244.941964,429.02532 243.895716,428.45874 C243.213141,428.091099 242.509359,427.768816 241.806362,427.448125 C240.633653,426.910988 239.420099,426.356343 238.224611,425.591619 C234.220277,423.033252 231.704411,418.919971 229.659043,415.265844 L229.484668,414.952315 C228.001698,412.308802 227.10626,410.711713 226.036447,406.947771 C225.570663,405.309302 226.503803,403.596828 228.121875,403.124942 C229.731306,402.643508 231.427139,403.596828 231.896066,405.237684 C232.767154,408.298174 233.399459,409.428153 234.787387,411.902965 L234.962547,412.218881 C236.719647,415.358152 238.668402,418.572225 241.477249,420.367458 C242.317704,420.902208 243.289332,421.347038 244.3183,421.819719 C245.145402,422.197705 245.971718,422.578078 246.770542,423.010971 C249.643012,424.565885 251.544639,426.564037 252.419655,428.948928 C253.581367,432.102522 253.194915,437.350556 249.448215,438.994595 C247.718607,439.756932 245.835046,439.688497 244.563367,439.507064 C242.401749,439.19433 240.311609,438.774169 237.718767,437.379203 L237.467416,439.750566 C236.751066,446.520887 235.08351,453.138423 232.512661,459.425718 C232.128566,460.364714 231.312461,461.053046 230.329836,461.263923 C229.356636,461.474799 228.329239,461.185938 227.597965,460.48567 L225.188138,458.171601 C223.718521,456.759924 222.557594,455.069731 221.749343,453.223569 C219.564947,457.888311 215.332825,461.083285 210.291668,461.880636 L209.777184,461.961804 C209.617734,461.987268 209.459854,462 209.30276,462" id="Fill-70" fill="#1A1919"></path>
            <path d="M381.40747,415 C381.383088,415 381.357894,415 381.333513,414.998389 C379.59267,414.959727 378.212674,413.526819 378.252497,411.800724 C378.369529,406.876158 379.943764,398.728152 380.008782,398.385027 C380.029912,398.139363 385.418236,350.086587 376.549039,319.761925 C368.299134,291.550784 346.437821,291.252765 346.164748,291.252765 C346.161497,291.252765 346.158246,291.252765 346.154995,291.252765 C344.417403,291.252765 343.006524,289.858518 343.000022,288.135645 C342.993521,286.408745 344.401962,285.004833 346.145243,285 C346.475206,285 373.049474,285.339098 382.611919,318.021332 C391.833022,349.559012 386.474769,397.312964 386.240707,399.331439 C386.191943,399.645568 384.664033,407.546298 384.562443,411.946511 C384.521807,413.647637 383.116617,415 381.40747,415" id="Fill-71" fill="#1A1919"></path>
            <path d="M287.056855,184.593061 C250.294807,191.715191 233.502237,217.853637 222.614624,249.680255 C232.778194,249.000033 242.803774,246.943211 252.235369,243.6035 C239.230347,252.073149 228.464862,263.196631 221,275.875251 C231.807516,276.878619 242.718126,276.89316 253.50185,275.916452 C244.339095,287.186158 236.534019,299.325125 230.25792,312.065951 C243.691976,312.847964 255.204502,304.657837 267.205539,299.409951 C268.922465,298.658637 270.873338,297.948524 272.715564,298.457479 C274.296881,298.893726 275.409512,300.124103 276.419049,301.288235 C285.293139,311.52549 294.166436,321.762745 303.041319,332 C310.710785,322.829934 316.299321,312.294577 319.385823,301.186444 C319.86799,299.452768 320.545244,297.437954 322.447741,296.846598 C324.299484,296.270591 326.247977,297.379788 327.863394,298.395273 C339.691549,305.838126 353.106572,311.283939 367.160783,314.349783 C364.942657,301.958762 351.308756,291.811988 352.79015,279.373303 C352.911485,278.355394 353.195392,277.258315 354.100248,276.626565 C354.992415,276.002894 356.237484,276.001278 357.380251,276.028745 C363.920432,276.179816 370.459819,276.331694 377,276.483573 C364.711883,266.250357 352.423767,256.017949 340.134857,245.784734 C350.292875,244.644837 360.4501,243.504941 370.608117,242.364237 C358.493676,227.896197 346.133393,213.587306 333.53282,199.444836 C329.999837,195.479031 326.286836,191.407395 321.216154,189.098519 C311.432449,184.644764 296.935723,183.003184 287.056855,184.593061" id="Fill-72" fill="#6BB85B"></path>
            <path d="M267.42054,294.300106 C268.19936,294.300106 268.993249,294.410547 269.791897,294.674645 C272.228288,295.484545 273.682826,297.401256 274.645644,298.671327 L296.087786,326.914601 C302.184314,319.146921 306.86596,310.276431 309.715553,301.053011 C310.244548,299.350779 311.339021,295.812667 314.880194,294.800292 C318.193749,293.867146 321.01717,295.891897 322.539915,296.983501 C331.589932,303.491515 341.962041,308.694244 352.799697,312.18914 C351.671915,309.081588 349.98262,305.98524 348.226706,302.771248 C344.541189,296.022345 340.728777,289.046158 341.967593,281.089607 C342.096867,280.270903 342.484691,277.777179 344.643498,276.317437 C346.413689,275.119393 348.443221,275.24664 349.660623,275.322668 L359.596529,275.938897 L332.380649,250.146932 C331.493175,249.30502 331.180695,248.014141 331.583588,246.85371 C331.987273,245.69408 333.029401,244.88338 334.244424,244.784943 L357.533687,242.922653 C347.806365,229.736162 337.812563,216.567279 327.774348,203.70971 C324.984236,200.138786 321.822163,196.091685 317.598134,193.868461 C309.562486,189.636491 296.62947,187.335638 287.496178,188.521678 C259.869474,193.088171 241.970884,209.834382 228.281256,244.21113 C235.997286,243.591701 243.574524,242.064734 250.866249,239.663044 C252.348545,239.177264 253.952978,239.877523 254.612041,241.302052 C255.271103,242.72658 254.771453,244.420808 253.450155,245.252317 C242.713222,252.006021 233.440345,260.830094 226.398446,270.95785 C234.731505,271.823771 243.154184,272.020644 251.500725,271.537264 C252.7213,271.47164 253.880013,272.142289 254.430422,273.252301 C254.979244,274.364713 254.819832,275.698808 254.02515,276.646359 C246.198086,285.968216 239.294186,295.995135 233.452241,306.515036 C240.357727,305.897207 246.987216,302.718428 253.929978,299.389994 C256.698676,298.063102 259.562545,296.689792 262.435139,295.499751 C263.941228,294.87632 265.640833,294.300106 267.42054,294.300106 Z M295.991821,335 C295.958511,335 295.928374,335 295.895857,334.998399 C294.972693,334.969589 294.109805,334.523023 293.5475,333.782749 L269.757001,302.449528 C269.224833,301.746068 268.495978,300.784911 267.870225,300.576834 C267.039061,300.309535 265.455248,300.964178 264.773186,301.248283 C262.054453,302.3735 259.267514,303.709996 256.572574,305.002475 C247.639141,309.286464 238.403539,313.729712 227.995741,312.683724 C226.976613,312.583687 226.073276,311.977062 225.587902,311.067925 C225.100941,310.159588 225.094596,309.063981 225.569661,308.150043 C231.056298,297.590927 237.571581,287.471174 244.986235,277.987657 C236.849864,278.116504 228.711907,277.61952 220.667535,276.528716 C219.633337,276.387863 218.739518,275.727619 218.294591,274.776066 C217.848078,273.822912 217.913112,272.706498 218.462728,271.810966 C223.585334,263.479076 230.086342,255.866653 237.627891,249.309021 C233.06759,250.073304 228.44384,250.534275 223.782815,250.687132 C222.731963,250.716743 221.779455,250.234964 221.182254,249.391452 C220.582673,248.549539 220.439123,247.460335 220.801568,246.489575 C230.628026,220.065376 246.982458,188.897817 286.554773,182.381 C286.58729,182.375398 286.622186,182.371397 286.655496,182.366595 C297.061708,181.006091 311.266849,183.527025 320.448521,188.359217 C325.841573,191.200271 329.59371,196.004453 332.609061,199.864284 C343.828196,214.234413 354.9934,228.991886 365.792988,243.727751 C366.459981,244.636088 366.583704,245.835733 366.120536,246.863314 C365.658161,247.890095 364.677102,248.583152 363.562009,248.671985 L341.667009,250.424635 L370.02812,277.302603 C370.97587,278.198935 371.261384,279.597054 370.747458,280.798299 C370.229566,281.998744 369.000268,282.756625 367.732107,282.667792 L349.281523,281.523368 C349.04756,281.508963 348.503496,281.47535 348.166431,281.504161 C348.133914,281.617803 348.091086,281.792268 348.052225,282.053965 C347.138578,287.908136 350.286376,293.671873 353.620551,299.772536 C356.451904,304.96006 359.380807,310.323649 360.143765,316.297864 C360.273833,317.325445 359.888389,318.350625 359.115913,319.030878 C358.343438,319.712731 357.281482,319.958422 356.295664,319.695124 C342.924066,316.092188 330.017223,309.988324 318.968604,302.044578 C317.201586,300.775308 316.690039,300.743296 316.555213,300.780109 C316.420386,300.86254 316.107113,301.253085 315.593187,302.904897 C312.127358,314.125859 306.149794,324.857839 298.313213,333.934005 C297.726322,334.611856 296.881675,335 295.991821,335 L295.991821,335 Z" id="Fill-73" fill="#1A1919"></path>
            <path d="M365.816968,361 C363.244835,361 361.064473,360.780936 359.679224,360.639884 C359.197362,360.592604 358.817989,360.547688 358.555156,360.533504 C357.012868,360.713168 355.572242,359.796725 355.130053,358.353898 C354.632488,356.731407 355.606129,355.031692 357.307936,354.558104 C358.122059,354.329584 358.824601,354.399716 360.352838,354.556528 C364.704471,354.999384 376.23113,356.156955 381.037349,348.490508 C381.949001,347.036649 383.919427,346.568577 385.439399,347.433801 C386.958544,348.302176 387.45363,350.179979 386.545283,351.629898 C381.572934,359.557173 372.405165,361 365.816968,361" id="Fill-74" fill="#1A1919"></path>
            <path d="M352.421654,415 C350.840484,415 349.524498,413.68765 349.461067,412.010669 L347.004865,349.110227 C346.932264,346.950552 347.674322,344.925003 349.090421,343.386164 C350.504227,341.847325 352.404842,341 354.440723,341 C358.392503,341 361.656486,344.247143 361.871996,348.393816 L363.959844,389.266212 C363.980478,389.731237 364.467286,400.54407 361.405057,408.653494 C360.799795,410.254979 359.073423,411.030021 357.551862,410.401153 C356.031064,409.765056 355.286714,407.953146 355.889684,406.352464 C358.470454,399.521658 358.038669,389.690276 358.03332,389.590686 L355.947764,348.731139 C355.904204,347.894255 355.243918,347.234868 354.440723,347.234868 C353.885135,347.234868 353.522895,347.537656 353.354767,347.719168 C353.189695,347.900681 352.914576,348.290209 352.931389,348.875707 L355.388355,411.754463 C355.454843,413.474815 354.183181,414.926913 352.546987,414.997591 C352.505719,414.999197 352.462158,415 352.421654,415" id="Fill-75" fill="#1A1919"></path>
            <path d="M215.941445,415 C212.906886,415 209.576138,414.409913 206,412.954649 L208.474225,407.903272 C220.742192,412.894072 227.781151,404.364172 228.075776,404 L233,407.23194 C230.473415,410.451765 224.362876,415 215.941445,415" id="Fill-76" fill="#1A1919"></path>
            <path d="M375.060611,415 C366.638937,415 360.526659,410.453191 358,407.23194 L362.926711,404 C363.217437,404.365598 370.261289,412.892647 382.529611,407.903272 L385,412.954649 C381.426884,414.409913 378.094477,415 375.060611,415" id="Fill-77" fill="#1A1919"></path>
            <path d="M205.469888,415 C204.228152,415 203.145863,413.923181 202.970796,412.439021 L202.023875,404.37396 C201.83384,402.749943 202.798984,401.253555 204.180643,401.028867 C205.55254,400.801887 206.83788,401.938317 207.028566,403.562334 L207.976138,411.627394 C208.166173,413.251411 207.200379,414.7478 205.818719,414.972487 C205.701574,414.991593 205.586382,415 205.469888,415" id="Fill-78" fill="#1A1919"></path>
            <path d="M231.635106,415 C230.437825,415 229.278717,414.411693 228.670533,413.376973 C226.480722,409.657403 224.949416,403.307987 224.051455,398.634211 C223.729577,396.951396 224.951151,395.345907 226.783513,395.048564 C228.60286,394.748033 230.359741,395.87363 230.685089,397.558836 C231.814699,403.440316 233.240158,408.132427 234.593607,410.433841 C235.478554,411.937294 234.87037,413.813819 233.234085,414.626927 C232.725674,414.880425 232.176486,415 231.635106,415" id="Fill-79" fill="#1A1919"></path>
        </g>
    </g>
</svg>